<?xml version="1.0" encoding="UTF-8"?>
<svg id="Layer_1" data-name="Layer 1" xmlns="http://www.w3.org/2000/svg" viewBox="0 0 481.86 454.86">
  <defs>
    <style>
      .cls-1 {
        fill: #f15a29;
      }

      .cls-2 {
        fill: #fbb040;
      }

      .cls-3 {
        fill: #f7941d;
      }

      .cls-4 {
        fill: #231f20;
      }
    </style>
  </defs>
  <g>
    <g>
      <path class="cls-1" d="m391.17,143.44l54.95-20.54c3.96-24.69,5.01-40.46,5.01-40.46l-71.58,7.29-11.49,39.57,23.11,14.14Z"/>
      <path class="cls-1" d="m386.23,159.71l-32.13-.7-51.29,130.14-164.76,121.58c219.63,50.47,286.41-168.36,305.71-274.07l-57.53,23.05Z"/>
    </g>
    <polygon class="cls-2" points="328.63 90.01 397.26 74.87 451.13 82.44 397.26 99.44 328.63 90.01"/>
    <g>
      <path class="cls-1" d="m95.56,89.15l13.05,10.29,51.37-12.29c10.13-23.21,18.12-38.29,18.12-38.29l-76.84,6.27s5.9-5.82-5.7,34.01Z"/>
      <path class="cls-1" d="m208.16,336.17s-.03-.04-.05-.04c-132.9,2.72-90.8-146.3-56.72-230.11l-49.46,10.08-15.79-4.29c-7.04,23.26-17.6,56.36-33.38,103.49C.09,372.6,212.02,380.01,212.02,380.01l-3.85-43.84Z"/>
    </g>
    <polygon class="cls-2" points="125.7 36.68 71.97 48.87 126.25 60.01 178.09 48.87 125.7 36.68"/>
    <g>
      <path class="cls-3" d="m108.61,99.44c8.85-23.84,17.6-39.43,17.6-39.43l-54.24-11.14s-5.98,14.73-13.38,38.29l50.02,12.29Z"/>
      <g>
        <path class="cls-3" d="m391.17,143.44c6.02-26.62,6.09-44,6.09-44l-68.63-9.43s-.59,16.42-5.39,40.86l67.93,12.57Z"/>
        <path class="cls-3" d="m320.49,144.2c-17.45,80.26-62.97,218.74-166.61,193.53-100.64-24.49-74.91-148.38-49.78-222.06l-49.63-14.89C27.31,193.58-7.2,381.22,145.02,412.3c149.84,30.58,216.48-153.31,241.2-252.58l-65.74-15.52Z"/>
      </g>
    </g>
  </g>
  <g>
    <g>
      <path class="cls-4" d="m446.24,82.47c.11-.46-.74-.34-.89-.42l5.77,6.17c-11.53-12.32-3.2-3.42-5.77-6.17h0s0,0,0,0h0s0,0,0,0h0s0,.02,0,.02v.03s.03.06.03.06c.01.04.03.07.05.11.04.07.09.12.14.16.11.08.23.11.35.11.23,0,.42-.08.31-.08Z"/>
      <polygon class="cls-4" points="447.42 90.64 447.09 90.47 447.8 91.74 447.42 90.64"/>
      <path class="cls-4" d="m446.57,98.17c1.5-.55.09-2.76.74-4.04l.35-.19-1.07-.73c0,1.65.52,3.85-.01,4.95Z"/>
      <path class="cls-4" d="m443.02,101.8c.58-.18.37.92.29-.91-.07.08-.11.1-.16.15-.01.16-.04.38-.13.76Z"/>
      <path class="cls-4" d="m443.14,101.04c.06-.79-.53.46,0,0h0Z"/>
      <path class="cls-4" d="m442.99,104.72l-.36-1.1c-.35.17-.55,1.09-.74.71.13,1.1.48.92,1.1.39Z"/>
      <path class="cls-4" d="m443.9,105.84l-.14-.57c-.15.08-.21.21.14.57Z"/>
      <path class="cls-4" d="m443.47,104.07l.29,1.2c.25-.12.71-.08-.09-.55.41.15.03-.13-.2-.65Z"/>
      <path class="cls-4" d="m443.77,103.46c.38-.54.67-1.27,1.03-.17.06-2.02-.97-1.85-1.03.17Z"/>
      <path class="cls-4" d="m447.99,98.73l.51-.74-.4-.74c.2.37-.56,1.47-.11,1.47Z"/>
      <path class="cls-4" d="m441.37,111.08c.29.11.85-.23,1.25-.26l-.24-.81c-.26.36-.56,1.08-1.01,1.07Z"/>
      <path class="cls-4" d="m442.62,110.82l.35,1.22c.21-1.02-.01-1.24-.35-1.22Z"/>
      <polygon class="cls-4" points="445.44 106.24 444.6 104.2 445.41 106.6 445.44 106.24"/>
      <polygon class="cls-4" points="440.7 115.44 440.1 114.69 440.98 116 440.7 115.44"/>
      <path class="cls-4" d="m440.5,117.59c-.56-.2-.96-.22-1.3-.37.1.03.57.26.97.61-.22-.24-.15-.22.33-.24Z"/>
      <path class="cls-4" d="m440.74,118.43c-.11-.17-.33-.4-.57-.6.19.2.37.39.57.6Z"/>
      <path class="cls-4" d="m442.54,113.97c-.19.06-.7.16-.99.78l.91-.33c.02-.14.05-.29.08-.45Z"/>
      <path class="cls-4" d="m442.49,114.41h-.03c-.1.5-.16.83-.19.98.03-.12.09-.42.22-.98Z"/>
      <path class="cls-4" d="m442.56,113.86s-.01.07-.02.11c.09-.03.12-.05.02-.11Z"/>
      <path class="cls-4" d="m444.27,109.15c.38.74.68,2.22,1.6.96-.51-.57-1.03.16-1.6-.96Z"/>
      <path class="cls-4" d="m443.7,113.46l.37-1.19c-.23,0-.58.17-.77-.2l.4,1.4Z"/>
      <polygon class="cls-4" points="443.88 114.09 443.7 113.46 443.57 113.9 443.88 114.09"/>
      <path class="cls-4" d="m441.57,118.29c.32.34.31.6.33.88.2-.16.33-.44.37-.73-.25-.15-.69-.41-.7-.16Z"/>
      <path class="cls-4" d="m441.99,117.14s.02.09.03.12c.08-.06.11-.12-.03-.12Z"/>
      <path class="cls-4" d="m438.96,120.51l.15.11s-.02-.1-.03-.15l-.12.04Z"/>
      <path class="cls-4" d="m442.43,118.45c.2-.18.02-.4-.22-.57.06.18.08.37.06.57.11.06.19.1.16,0Z"/>
      <path class="cls-4" d="m440.7,118.94c.2.12.41.2.62.27-.32-.17-.76-.45-.62-.27Z"/>
      <path class="cls-4" d="m441.76,117.4s-.02-.05-.03-.08c-.21.14-.12.14.03.08Z"/>
      <path class="cls-4" d="m441.76,117.4c.02.07.05.14.08.21.04.03.08.06.12.09.09.06.17.12.26.18-.02-.07-.05-.14-.09-.21-.03-.11-.06-.29-.1-.41-.07.06-.17.11-.26.14Z"/>
      <path class="cls-4" d="m439.03,126.34c-.19-.77.87-1.95,2.3-1.58.91-.97-.73-3.14-2.22-4.14.09.34.2.64-.79,1.5.55.25,2.9,0,2.19,1.03-1.38.95-1.35.2-2.23.09.97.69-1.43,2.07-.59,3.3l1.16-.98c.1.2-.25.72.19.77Z"/>
      <path class="cls-4" d="m440.74,120.09l.14-.16c-.15-.02-.29-.09-.46-.21-.08-.06-.17-.14-.26-.23-.12-.08-.11-.23-.4-.29-.65.66-.71.99-.67,1.26l1.18-.38.48-.12v.13Z"/>
      <path class="cls-4" d="m441.73,119.61c.6.7.13,1.26,1.22,1.85.72-.32.34-.63.23-.97-.08-.12-.15-.26-.2-.41,0,.09,0,.17,0,.24-.37.19-.35.04-.41-.16-.05-.2-.23-.43-.73-.48.03-.09.07-.15.11-.2-.02-.12-.02-.22-.03-.31-.06.05-.13.09-.21.12-.13-.02-.25-.05-.37-.08.02.01.04.02.06.03h0s.01,0,.01,0c.12.07.19.11.1.08,0,0,0,.02,0,.02.09.09.17.18.23.26-.4-.04-.21-.16-.23-.26l-.1-.1h-.01c-.12.21-.29.44-.51.69.25.03.51-.09.85-.32Z"/>
      <path class="cls-4" d="m447.52,111.63c-.09.06-.15.05-.21.05.08.17.15.24.21-.05Z"/>
      <path class="cls-4" d="m446.87,112.53c-.09-.19-.42-.38-.25-.93.33-.45.41.06.69.07-.18-.37-.44-1.27-1.01-.27l.09.18c-.43.91-1.67,1.98-1.76,1.79.81-.17,1.39-.33,2.23-.86Z"/>
      <path class="cls-4" d="m444.39,117.79c0,.19.02.31.04.42l.05.37.09.78c.28-.15.56-.34.84-.55l-.44-.07c.31-.82-.26-.77-.58-.94Z"/>
      <polygon class="cls-4" points="438.6 120.18 438.52 119.24 437.9 120.85 438.6 120.18"/>
      <polygon class="cls-4" points="436.21 121.19 436.02 120.42 435.55 121.11 436.21 121.19"/>
      <path class="cls-4" d="m322.72,103.51l-.16-.6c.04.28.1.46.16.6Z"/>
      <path class="cls-4" d="m322.16,107.65l.37.15c-.19-.22-.33-.32-.37-.15Z"/>
      <path class="cls-4" d="m378.64,136.05c-.7-.88-1.43-2.18-1.49-1.29l.1.9c.61-.04,1.05.13,1.39.39Z"/>
      <path class="cls-4" d="m334.85,133.22c.06.1.13.2.2.3.26-.26.5-.49.72-.71-.28.12-.59.26-.92.41Z"/>
      <path class="cls-4" d="m333.6,136.64l-1-.75c.21.24.53.49,1,.75Z"/>
      <path class="cls-4" d="m336.27,82.52l.48-1.01c-1.04.24-.49.57-.48,1.01Z"/>
      <path class="cls-4" d="m411.46,130.78c-.81-.06-1.41.01-1.9.15,1.01.16,1.94.61,1.9-.15Z"/>
      <path class="cls-4" d="m331.66,106.23c-.11-.38-.27-.55-.46-.57.1.39.24.62.46.57Z"/>
      <path class="cls-4" d="m407.57,131.68c.15.04.29.03.44.05.45-.32.92-.62,1.56-.8-.74-.12-1.53-.07-1.99.75Z"/>
      <path class="cls-4" d="m420.53,73.14c.06.05.13.08.17.13.03-.11-.05-.13-.17-.13Z"/>
      <path class="cls-4" d="m443.55,85.22c-.25.02-.64-.03-1-.07.17.08.47.12,1,.07Z"/>
      <path class="cls-4" d="m426.31,124.49c.49-.25.05-.12,0,0h0Z"/>
      <path class="cls-4" d="m430.01,126.77c-.08.13-.11.28-.06.47-.03-.21,0-.36.06-.47Z"/>
      <path class="cls-4" d="m404.33,138.66s-.03,0-.05.01c.21.1.17.08.05-.01Z"/>
      <path class="cls-4" d="m427.22,124.57c-.23-.03-.48-.03-.75,0,.13.02.36.03.75,0Z"/>
      <path class="cls-4" d="m426.97,124.22c.19-.04.34-.06.48-.09.01-.16-.07-.22-.48.09Z"/>
      <path class="cls-4" d="m425.61,124.8c.29-.12.58-.19.86-.23-.12-.02-.18-.05-.16-.08-.15.07-.36.16-.7.31Z"/>
      <path class="cls-4" d="m375.01,77.08s.09.03.13.05c.46-.47.24-.36-.13-.05Z"/>
      <path class="cls-4" d="m362.94,142.31s.04-.02.07-.03c-.02-.01-.05-.03-.07-.04v.07Z"/>
      <path class="cls-4" d="m360.88,142.59c1.02-.91,1.47-.69,2.05-.35l-.19-2.58-1.87,2.93Z"/>
      <path class="cls-4" d="m323.48,92.4l-.93,2.18c-1.05-3.16-.5-5.63-1.72-3.41.66.33.97,1.13,1.11,2.12.06.5.08,1.05.07,1.62,0,.35-.01.71-.02,1.08-.05,1.31-.1,2.62,1.24,2.85l-.66.84c.05-.25-.1-.31-.05-.56-1.47,1.6,1.83,1.49,1.2,3.69-.29.76-.75,1.26-1.01.69l.46,1.82c-.11.5-.57.32-.45-.18l-.11,2.68-.08-.03c.37.43.91,1.38,1.14,1.84-.47.62-.24-.38-.6-.25l.45,1.56c-.78.5-1.28-.81-1.05-1.81-2.86,1.01.51,1.31-1.47,4.05l-.15-1.43c-1.65.67-1.25,1.83-2.44,3.23.55-.29,2.87-2.76,3.3-1.07-.27.42-.46.99-.05,1.93-.96-.14-.84.73-.96,1.79l-1.25-.27c.18,1.18.84,1.2,1.3,1.96-.33,1.24-1.35,1.34-2.22,1.49-.55,1.97,1.81-1.12,1.63,1.3-.18.29-.37,1.02-.48,1.63-.12.62-.18,1.22-.21,1.83-.06,1.22.04,2.45.18,3.8-.41.98-.61,1.01-.77.86-.16-.14-.28-.47-.55-.04.27.43.54.81.82,1.15-.1.4-.43.47-.6.49.09.58.45.39.79.31.34-.09.65-.08.67.74.1-.04.17-.05.22-.04.07,0,.03.08.16.05.19,0,.35.04.5.12.3.16.57.47.96.79.74.64,2.1,1.36,3.84.87.41.45-.77.66-.88,1.14,2.18-.13,2.96-.18,3.72-.28.37-.05.72-.12,1.16-.23.21-.06.49-.12.7-.21.2-.1.44-.2.71-.33l1.5,1.13c-1.04-1.17.72-2,2.25-2.67-.35-.54-.64-1-.85-1.24l2.3-.27c.22.26-.07.65-.53,1.11.17-.08.33-.15.45-.23.69.61.15,1.26-.53,1.86-.22-.3-.43-.61-.64-.92-.68.67-1.34,1.42-1.36,2.18.17-.12.46-.19.77-.21-.18.18-.3.35-.26.49.05.15.33-.09.74-.35l.23,1.49.22-.53,2.68,1.4c2.29-1.04,4.45-2.79,7.78-2.77-.99.88-.48,1.65-.75,2.86-.64-1.45-2.6.09-4.22-.49.85.3.55.84.29,1l3.2-.62c-.25.98.49.86,1.2,1.42-.22-2.08,2.47-.9,3.79-1.28-.05.68-.46,1.3-1.91.86,1.36,1.78,2.54-1.92,3.91-.37-.36-.05-.54-.19-.75.12.95-.43,2.93.42,2.34.9l-.36-.05c2.36.68,7.3,1.37,7.97-.24-.02.22-.69,1.96-.9,2.27l5.32-4.84c-.64,1.37.17,5.06-1.97,5.5.53.31,1.2.68,2.49.4-.35-.28-.59-2.26-.03-2.29,1.17,1.87.86,1.04,2.41,2.74-.53-.42.54-2.55,1.45-2.31-.21.31-.33,2.24-.72,2.41l2.71-1.79c-.65.29-.45,1.86-.05,2.58-.16-.48,1.98.41,2.63.3l-.88-.69c2.53.81,3.14-2.64,5.69-2.04-.4.4-1.29,2.67-.03,3.19.81-1.02,3.66-4.96,6.1-5.41l.32.73,1.88-.41c-1.4,1.5-5.12,4.52-7.05,5.61.88.69.13.81,1.59,1.02.4.7-.96.77-1.4.73l3.31,1.02c.09-1.35,2.83-.85,2.91-1.97l-3.93.69c.1-1.35,2.82-3.36,5.18-2.68.51.64-.89,2.27-.92,2.72.2-.2.81-.31,1.39-.33.16,0,.26,0,.45.01.19.02.37.04.53.07.32.06.55.14.63.23l-.79.22c-.25.08-.61.13-.76.23.05.03.1.05.15.08.08.03.16.05.23.07.16.04.31.06.46.07.3.02.6,0,.88-.05.57-.09,1.09-.28,1.63-.33.61-.42,1.23-.67,2.2-.52.2-.05.48-.03.8.01.31.05.5.18.74.26.45.18.81.27.72-.12-1.4-1.12-3.23-5.5-3.06-6.79.22.03,3.28.34,4.15.82,1.29.8-.3,3.17.8,3.86-.1-.36.22-.96.37-1.17.66.09.17,1.15,1.31.55-.28-1.35,2.49-.81.17-1.29,1.04-.81,1.35-.21,2.71-.78-.75-.66.19-3.27,1.24-4.08.05.35.47.67.68.82,2.46-.79,3.97-.69,6.23-1.52.32.23,1.55.2,1.29.92.24-.35.38-.89,1.06-1.18,1.76.6-1.48.75.04,1.69-.19-.77,1.41-1.69,2.23-2.53-.73-1.03-2.37.63-3.18,1.47-.6-1.58.51-3.88,2.59-5.49,1.72-1.09,1.19.72,1.43.37,3.62-1.04,1.96-3.88,5.3-3.83,1.53.57.8,1.98,1.33,2.62-1.38.95-2.58.23-3.6.66h1.45c-.36.52-1.28,1.15-1.94,1.07,1.31.54,6-2.04,9.02-2.22.36-.52,1.06-1.18.51-1.44l-.8.46c-1.09-.52,1.19-1.73-.03-1.7.94-1,1.89-2.38,3.68-2.53l.73,1.04c-.16-.32-1.31-.29-1.64.23.48-.76,3.06.63,3.24-1.15l-1.43-.37c.94-1.01,1.91-2.76,3.48-2.94-1.08-.89-.28.25-1.8-.69,1.5,1.32-3.7,1.3-1.63,2.51-1.62-1.15-2.06.02-3.91-.78.18.36.76.54-.52.81-.01.13-.09.32-.14.43-.04,0-.06,0-.09,0,.03,0,.05.01.08.02-.03.08-.03.09.03,0,.35.06.66.17.83.35-.27,1.09-2.2,1.78-2.68,2.47-.78.09.14-.55-.4-.8l-.72,1.04c-.41-.81-2.42-.69-.92-1.81l-1.53.53c-1.07-.14-2.37.13-2.99.77-.78.09-1.46,1.61-1.08.71l-2.18,1.41-.1-.2c-2.38.77-4.31,3.2-7.56,2.68-.71.51-1.43,1.07-2.84,1.33l-.53-.63c-.92.63-3.32.41-3.47,1.33-1.83-1.55-5.08,1.41-6.99,1.73l.29.98c-.62.2-1.2.48-1.8.83-.56.33-1.39.83-1.44,1.06l.27.86c-.14.28-.38.41-.65.45-.34-.13-.69-.4-1-.64-.65-.3-1.43-.6-2.19-.7.21-.31.75-.12,1.1.16-2.24-2.47-5.77.43-7.86-1.46-.65.21-1.05.02-1.43-.27.06,0,.11,0,.15-.02-.06-.02-.15-.04-.24-.06-.23-.2-.47-.43-.73-.62.21.26.41.48.6.6-.46-.07-1.17-.08-1.88.01l-.11-1c-.06,0-.1,0-.16,0-.6-.47-.62.35-.39,1.13-.37.09-.71.22-1,.41-.26-1.63-1.87.19-2.3-1.58-.6.71-3.5-.03-4.17,1.58.02-.22-.16-.36.2-.31-.72-.33-1.43-.66-2.2-.31l-.1-1.26-1.94,1.32c-.86-.92-1.2-1.42-.03-2.16-2.66.98-2.04.18-4.34,1.21l.24-.76c-.73-.1-2.09.72-2.41,0-1.35-1.78-8.02-1.69-11.94-3.84.39,2.44-1.75-1.39-2.25.36-.14-.59-.67-1,.1-1.35-2.23.14-3.04-1.45-4.79-.23-.14-.59.6-.71.45-1.07-.19.09-.76.35-.93-.02-.16-.36.4-.4.78-.57-2.2-.31-2.72,1.32-3.17,2.86-.97-.95-1.54-.94-2.52-.06-.29-.58-.83-1.24.56-1.17-.37-.11-1.5-.51-2.58-.73-.27-.06-.53-.1-.78-.12-.24-.02-.3,0-.45.03-.25.07-.47.23-.6.53-.04-.34-.64-.21-.86-.1-1.1-.28-1.08-.39-2.28-.49.03.08.07.16.12.23-.92.61-1.32.63-1.57.5-.13-.07-.22-.17-.35-.26-.03-.03-.08-.04-.1-.07.02-.06.04-.12.06-.19.04-.12.06-.24.05-.35l.18-.08c.84-1.48.72-1.54.64-1.75-.09-.15-.12-.45.73-1.57l-1.02.27c-1.06.08-.63-.63-.04-1.29.3-.36.61-.58.87-1.09.25-.46.39-.94.27-1.42l-.65.56c-.54-1.09,3.22-2.28,3.64-3.23.21-.19.23.39.31.71,1.62-2.41-1.18-.54-1.17-2.51.72-.25,1.63.72,1.96-.56.65-.58-1.62-4.1-.08-5.7-.57.32-1.14.64-1.41-.31,0-1.4,2.45-3.48.95-4.93.16-.16.31-.21.44-.2-.29-1.11-.32-3.52-1.13-4.25,1.69-.32,1.47-2.01,1.17-3.57-.15-.76-.31-1.57-.25-2.03.05-.35.33-.52,1.08-.34l-.05-1.75.3.24c.07-.25.07-.49,0-.75.24-.31.15-.78.1-1.32.44.12.41.41.51.56,1.05.08,1.45.12,1.82-.11.09-.06.17-.13.26-.22.15-.11.34-.24.52-.39.37-.3.79-.7,1.33-1.21l.47.91c.55-.71,4.6.58,7.25-1.19,0,.12-.02.32-.22.5,3.01-1.85,8.39.97,8.8-2.82l1.96-1.34c-2.84.34.08-1.62-1.2-1.95,1.05-.45,3.06.44,1.76.92l-.25-.13c-.09,1.95,3.6-.11,3.8,1.16,5.45-1.3,11-1.46,16.15-2.51l-.91-1.3,1.81-.31c.54.23.88.98-.41,1.2.85.66,1.99-1.15,1.96-1.47,2.62.03-.61,1.88.17,1.75l1.02-.34-.27-.12c.71-.77.65-1.4,2.2-1.67,1.03.07.69.77,1.09.74.02.1.16.12.59-.09l2.28-.37-1.15-.93c.88-.78,2.13-.41.81-1.46,1.96,1.63,8.55-1.15,9.63-.74,1-.96,2.42-1.37,3.19-1.48.14.03.3.07.46.1-.25-.28-.55-1.63.77-1.29-.92,2.58,2.58,1.54,3.52,3.62-.9-1.42,4.29.28,2.85-1.75,1.22.39-.06,1,.79,1.76,3.11-.61,6.45,1.59,10.17,1.76.11-.34-.43-.96.43-1.37l1.69,2.01c.75-.07.95-1.92,2.1-.52-.15-.32-.36-.8.14-.84,6.95,2.71,14.89.67,21.74,4.89-.89-.81-.23-.79.53-.71-.47-.23.13-.86.1-1.34l2.87,1.74c.74-1.23,3.29.37,3.78-.84l-1,.09c1.5-1.3-1.34-3.54-.88-5.41-1.68,1.48-3.45-3.02-6.15-.95-.47-.46.53-.55.31-1.03-.71.73-1.46.8-2.75.24l.18-.18c-3.8-.33-5.3-1.36-9.46-2.49l.18.98c-.89-.25-1.04-.57-1.44-.87-1.24,1.28,2.54.44,1.37,1.87-.94-2.08-6.41-.93-6.92-3.21-1.4-.21.26,1.14-1.14.93l-.29-.64-.46.71c-.9-.25-1.26-1.05-1.22-1.55.21.09.65-.05.9-.06-1.09-.86-3.39-.24-3.77-.52l1.29.55c-3.9.01-8.45-1.41-12.31-.74l.22.48c-2.93.42-2.19-.8-5.34-.86l.13-.09c-.34.18-.73.29-1.13.34-.2.02-.41.03-.62.02-.28-.02-.57-.05-.85-.11.55-.19.08-.51-.41-.84-.48-.33-.99-.67-.19-.85-.19,0-.36.02-.46.04-1,.42-1.58.69-1.96.9-.27.19-.37.32-.46.48-.17.31-.24.71-1.02,1.7l-.62-.62c-.53.8-.51,1.16-2,1.69,1.11-.9-1.22-.89,0-2.02-3.55-.88-4.39,2.65-6.37.65-1.03,2.33,3.01.5,2.28,1.11.83.5-.88,1.77-1.93,1.79-1.03.18-2.3-2.18-4.86-1.58.26-.05.24-.2.5-.25-1.07-.3-1.73,1.11-3.09.54-.39,1.36-1.55.27-1.4,1.86l2.28-.88c-1.25.7-2.1,2.78-4.5,2.39.1-.35.67-.9,1.07-1.23-.74-.31-1.17.58-1.94.25-.15-1.59,2.79-.97,3.96-2.46-.83-.5-2.46,1.72-2.11-.12-.56,2.36-2.59.29-3.97,2.3l-.09-.95c-.24.21-.72.77-1.23.86l.65-1.4c-1.18,1.34-2.91-.3-4.14.56,2.82-.65.88.98,2.23,1.39-3.22,2.01-2.54-1.98-6.35-.67.5-.25,2.11.12,1.38.73-.79-.03-1.85-.17-2.41-.55-2.55.76.61.87-.37,1.68-1.13-.93-1.17.74-2.22,1.35l-.22-.94c-3.08.05-.35,2.14-3.17,1.99l.83-1.55-1.31.64.05-1.13c-1.33,1.13-1.84,1.03-3.39,1.05.49.59.18,1.75-1.12,2.07-1.01-.36.3-1.01-1.52-.46.29-.68.58-1.52,1.58-.83.01-.33.28-.68.3-1-1.1-.43-2.44.39-3.11.54.27-.02.59-.04.77.06l-2.4,1.9c-.5-.26-.23-.62.04-.97-.52.22-.8.74-1.58,1,.04-.81-.19-1.59.87-2.2l-2.37,1.41c-.24-.3-1.51-.62-1.24-.98-1.52-.14-3.15,2.25-5.16,2.07-.06.17-.23.36-.6.55-.45.05-.9.06-1.35.06h-.67s-.34,0-.34,0h-.17s-.27.04-.27.04c-1.53.21-3.19.6-4.63,1.47-.94-.27-1.96-.53-3.04-.77-1.39.47-.26.67.55.98.83.3,1.33.69-.55,1.38-.22.11-.48.14-.58.24,0,1.05-.32.95-.7.68-.37-.27-.79-.74-.99-.31.31,1.13.78,2.6,1.02,3.98.22,1.39.22,2.7-.47,4.1-.18-1.01.08-1.76.03-2.71Zm-1.75,21.47c-.14-.42-.65-1.29-.05-1.5,1.03.6.46.88.05,1.5Zm15.78,21.73c-.35.26-.78.02-1.22-.43.39,0,.8.1,1.22.43Zm83.43-8.27s-.02.04-.02.06c-.97-.04-.62-.01.02-.06Zm1.89-.26c.13-.19.07-.31-.05-.41-.04.27-.42.44-.89.54.21.19.5.27.94-.13Zm-40.69-44.91l-.41-.17c.74-.45.57-.15.41.17Z"/>
      <path class="cls-4" d="m333.76,136.25c-.08-.18-.08-.36-.07-.55-.18.13-.22.31.07.55Z"/>
      <path class="cls-4" d="m336.18,82.7s.04,0,.06,0c.02-.06.03-.13.02-.18l-.09.19Z"/>
      <path class="cls-4" d="m398.72,144.82c-.41,0-.67-.09-.87-.21.06.23.3.35.87.21Z"/>
      <path class="cls-4" d="m431.48,122.09l-1.03.65c.52-.25.79-.12,1.12-.08-.1-.2-.43-.43-.09-.57Z"/>
      <path class="cls-4" d="m443.27,124.06c.1-.16.34-.14.43-.3l-.31-.36c-.62.26-.94.77-.13.67Z"/>
      <path class="cls-4" d="m433.64,124.71c.37.73.98.21,1.7-.23-.05.02-.09.04-.14.05-.17-1.15-.87-.49-1.57.17Z"/>
      <path class="cls-4" d="m435.52,124.39c.23-.13.47-.24.72-.29-.07-.46-.33.02-.72.29Z"/>
      <path class="cls-4" d="m424.85,125.74c.44.06-.13-1.06.19-.83.05-1.12-2.03,2.09-.19.83Z"/>
      <polygon class="cls-4" points="435.21 126.97 434.58 126.14 434.42 127.06 435.21 126.97"/>
      <path class="cls-4" d="m428.78,128.59l1.35-.21c-.08-.15.05-.3.21-.45-.78.26-1.69.38-1.56.65Z"/>
      <path class="cls-4" d="m430.34,127.94c.41-.13.78-.29.95-.53-.21.09-.67.3-.95.53Z"/>
      <polygon class="cls-4" points="433.61 127.89 433.16 127.84 432.26 128.1 433.61 127.89"/>
      <path class="cls-4" d="m415.29,133.43l-1.26.78c-.02.37.43.43.89.11.24-.35.7-.66.38-.89Z"/>
      <path class="cls-4" d="m420.37,134.46c-.44-.06-.54-.26-.87-.49l.39,1.18.47-.69Z"/>
      <path class="cls-4" d="m416.5,136.21c-.02.37-1.63,1.67.07.95.02-.37,1.28-1.15-.07-.95Z"/>
      <polygon class="cls-4" points="395.42 142.42 395.76 142.27 395 140.38 395.42 142.42"/>
      <path class="cls-4" d="m375.45,146.02c1.61.79.63-1.16,2.05-.28.49-.4-1.16-.72-.68-1.05-1.12.31-1.6-.07-1.37,1.33Z"/>
      <path class="cls-4" d="m376.83,144.69c.18-.05.37-.11.58-.21-.32.07-.48.14-.58.21Z"/>
      <polygon class="cls-4" points="447.42 86.86 448.46 87.44 447.85 86.66 447.42 86.86"/>
      <path class="cls-4" d="m449.74,85.66l.08,1.32.82-1.07c-.26.02-.75.07-.9-.25Z"/>
      <path class="cls-4" d="m318.69,116.47l.3.13c.36-.11.42-.36.55-.86l-.85.73Z"/>
      <polygon class="cls-4" points="321.6 102 321.55 102.25 322.77 101.91 321.6 102"/>
      <path class="cls-4" d="m321.36,83.92c-.09,1,.11,2.39.02,3.38-.09-1.99.92-2.39.49-2.95-.05-.09-.21-.23-.51-.43Z"/>
    </g>
    <g>
      <path class="cls-4" d="m158.51,82.5c.44-.03.09-.81.12-.97-.67.35-.06,1.18-.12.97Z"/>
      <polygon class="cls-4" points="151.93 86.03 151.97 85.66 151.13 86.73 151.93 86.03"/>
      <path class="cls-4" d="m145.36,87.58c.95,1.24,2.32-.79,3.61-.58l.27.27.26-1.24c-1.38.52-3.05,1.7-4.14,1.55Z"/>
      <path class="cls-4" d="m141.14,85.42c.35.49-.65.65.86-.03-.09-.04-.12-.07-.18-.1-.14.04-.33.09-.68.13Z"/>
      <path class="cls-4" d="m141.82,85.29c.68-.2-.56-.35,0,0h0Z"/>
      <path class="cls-4" d="m138.7,86.36l.8-.7c-.27-.27-1.09-.15-.85-.46-.87.49-.6.76.05,1.16Z"/>
      <path class="cls-4" d="m138.08,87.58l.42-.32c-.11-.11-.25-.13-.42.32Z"/>
      <path class="cls-4" d="m139.4,86.59l-.9.67c.19.19.31.64.42-.27.02.43.12-.01.48-.4Z"/>
      <path class="cls-4" d="m140.02,86.67c.58.18,1.29.21.49.91,1.7-.61,1.21-1.52-.49-.91Z"/>
      <path class="cls-4" d="m145.37,89.1l.78.24.48-.61c-.24.3-1.41-.06-1.26.36Z"/>
      <path class="cls-4" d="m132.86,87c.01.31.49.71.65,1.08l.59-.5c-.39-.12-1.09-.15-1.24-.58Z"/>
      <path class="cls-4" d="m133.51,88.07l-.88.75c.91-.16,1.02-.44.88-.75Z"/>
      <polygon class="cls-4" points="138.29 89.16 139.68 87.7 137.97 89.25 138.29 89.16"/>
      <polygon class="cls-4" points="129 87.88 129.41 87.06 128.64 88.34 129 87.88"/>
      <path class="cls-4" d="m126.48,88.61c.29-.67-.81-.82-.45-1.28-.67.27-1.14.89-1.57,1.46.51-.38,1.13-.46,2.02-.18Z"/>
      <path class="cls-4" d="m123.73,89.65c.25-.2.48-.52.74-.85-.27.2-.52.46-.74.85Z"/>
      <path class="cls-4" d="m130.88,89.09c-.12-.16-.38-.59-.99-.65l.59.74c.12-.03.26-.05.4-.08Z"/>
      <path class="cls-4" d="m130.5,89.19l-.02-.02c-.44.08-.74.13-.87.16.11-.02.38-.06.89-.13Z"/>
      <path class="cls-4" d="m130.98,89.07s-.06.01-.1.02c.06.07.09.09.1-.02Z"/>
      <path class="cls-4" d="m135.47,89.04c-.48.61-1.59,1.4-.23,1.82.29-.67-.49-.91.23-1.82Z"/>
      <path class="cls-4" d="m131.72,89.99l1.11-.07c-.07-.21-.34-.49-.11-.79l-1.01.85Z"/>
      <polygon class="cls-4" points="131.26 90.38 131.72 89.99 131.3 90.01 131.26 90.38"/>
      <path class="cls-4" d="m125.74,89.99c-.38.47-.87.62-1.43.82.65.02,1.3-.05,1.9-.19.02-.28.17-.81-.47-.63Z"/>
      <path class="cls-4" d="m128.07,89.67s-.07.05-.09.07c.08.06.14.07.09-.07Z"/>
      <path class="cls-4" d="m118.7,92.14l.13.13c0-.05,0-.1-.01-.15l-.11.02Z"/>
      <path class="cls-4" d="m126.36,90.74c.5.05.72-.22.92-.54-.32.17-.67.31-1.06.41,0,.13,0,.21.14.13Z"/>
      <path class="cls-4" d="m122.25,90.41c.28.12.59.2.91.27-.3-.21-.87-.5-.91-.27Z"/>
      <path class="cls-4" d="m127.77,89.55s.04-.04.06-.05c-.19-.14-.15-.06-.06.05Z"/>
      <path class="cls-4" d="m127.77,89.55c-.21.18-.34.43-.49.65.26-.13.5-.28.7-.46-.07-.05-.15-.12-.21-.19Z"/>
      <path class="cls-4" d="m118.27,97.88c-.1-.79.93-1.79,2.18-1.21.89-.82-.39-3.2-1.62-4.4.05.34.12.65-.82,1.36.47.33,2.58.42,1.85,1.33-1.3.73-1.21,0-1.99-.24.81.82-1.45,1.82-.8,3.16l1.11-.79c.08.21-.29.67.1.79Z"/>
      <path class="cls-4" d="m120.85,91.87l.41-.2c-.53-.02-.96-.24-1.75-.69-.63.55-.71.87-.7,1.14l2.17-.4-.12.15Z"/>
      <path class="cls-4" d="m123.22,91.2c-.14.92-1.1,1.53-.24,2.28,1.26-.36.73-.91,1.4-1.46-2.01.7.48-.61-1.12-.73.37-.24.72-.37,1.06-.49-.39-.01-.78-.05-1.16-.13.02.02.04.03.06.04h0s0,0,0,0c.11.08.16.14.04.1,0,.01-.03.02-.04.03.01.12,0,.23-.02.34-.64-.03-.15-.2.02-.34,0-.04,0-.09,0-.13,0,0-.01,0-.01,0l-1.95.95c.46.01,1-.14,1.95-.47Z"/>
      <path class="cls-4" d="m134.57,92.93c-.08-.06-.09-.12-.11-.18-.11.13-.14.22.11.18Z"/>
      <path class="cls-4" d="m133.6,92.62c.12-.15.17-.52.67-.55.48.15.09.4.18.67.24-.29.88-.85-.13-1.03l-.12.15c-.9-.09-2.22-.88-2.1-1.03.42.7.76,1.18,1.49,1.79Z"/>
      <path class="cls-4" d="m128.4,92.14l-1.62.82,1.05.52-.15-.43c1.02-.06.68-.55.72-.91Z"/>
      <polygon class="cls-4" points="118.4 91.77 118.42 90.83 117.72 92.32 118.4 91.77"/>
      <polygon class="cls-4" points="116.19 92.41 116.09 91.62 115.61 92.23 116.19 92.41"/>
      <path class="cls-4" d="m98.6,37.96l.46-.33c-.22.12-.36.23-.46.33Z"/>
      <path class="cls-4" d="m94.92,38.74v.4c.12-.25.15-.42,0-.4Z"/>
      <path class="cls-4" d="m66.4,83.94c.26-.7,1.25-1.63.42-.92-.26.23-.5.47-.74.71.31-.08.34.02.32.21Z"/>
      <path class="cls-4" d="m69.57,54.53c-.11.04-.22.08-.32.11.21.28.42.53.6.77-.08-.27-.18-.57-.27-.88Z"/>
      <path class="cls-4" d="m66.4,52.76l.88-.74c-.26.14-.55.38-.88.74Z"/>
      <path class="cls-4" d="m118.4,32.52l.39-1c-.92.21-.42.56-.39,1Z"/>
      <path class="cls-4" d="m95.68,91.37c-.55-.48-1.02-.75-1.46-.9.64.67,1.08,1.55,1.46.9Z"/>
      <path class="cls-4" d="m99.19,47.26c.27-.22.37-.43.32-.61-.29.22-.43.42-.32.61Z"/>
      <path class="cls-4" d="m92.39,90.03c.09.11.19.18.29.28.5-.03.99-.03,1.54.17-.47-.5-1.07-.88-1.83-.45Z"/>
      <path class="cls-4" d="m176.11,63.89c-.06.03-.1.08-.17.11.1.07.14,0,.17-.11Z"/>
      <path class="cls-4" d="m159.05,79.84c.04-.22.18-.54.3-.84-.12.12-.22.37-.3.84Z"/>
      <path class="cls-4" d="m108.56,93.82s.06-.02.06-.03c0,0,0-.01,0-.02-.01-.01-.05,0-.06.04Z"/>
      <path class="cls-4" d="m110.23,96.98c-.08.12-.13.26-.09.46,0-.21.03-.36.09-.46Z"/>
      <path class="cls-4" d="m86.4,94.11s-.02,0-.04-.01c.1.2.08.16.04.01Z"/>
      <path class="cls-4" d="m108.8,94.2c-.06-.08-.11-.14-.17-.19,0-.01-.02-.03-.03-.04,0,.01.01.03.03.05.02.06.07.12.17.19Z"/>
      <path class="cls-4" d="m108.74,93.79s.09.04.13.06c0-.15-.02-.24-.13-.06Z"/>
      <path class="cls-4" d="m108.37,93.82c.08,0,.15.07.23.15-.03-.07-.04-.12-.03-.15-.04,0-.1,0-.2,0Z"/>
      <path class="cls-4" d="m153.89,40.54s.06.06.08.1c.56-.24.34-.23-.08-.1Z"/>
      <path class="cls-4" d="m57.31,77.96s.01.06.02.09c.02-.03.04-.07.06-.09h-.08Z"/>
      <path class="cls-4" d="m57.29,75.94c.39.52.53.88.51,1.16-.01.28-.17.46-.42.86.44-.02.88-.02,1.32-.01.43.02.85.07,1.28.11l-2.69-2.11Z"/>
      <path class="cls-4" d="m107.31,35.73l-1.37-.49c1.16-1.58,2.3-1.38.94-2.2.43,2.69-4.59,1.33-4.16,4.01l-.92-.38c.23-.03.23-.19.46-.21-1.82-.92-.71,2.17-2.77,2.24-.73-.05-1.3-.32-.9-.74l-1.39,1c-.46.05-.45-.43,0-.49l-2.29.74v-.08c-.24.49-.85,1.31-1.16,1.66-.68-.25.23-.35,0-.64l-1.15.94c-.68-.57.24-1.48,1.16-1.58-1.81-2.37-.92.91-3.89-.04l1.15-.61c-1.13-1.32-1.96-.56-3.56-1.19.44.42,3.31,1.73,2.05,2.71-.44-.11-.99-.09-1.62.62-.22-.94-.91-.54-1.82-.28l-.22-1.26c-.92.59-.7,1.2-1.16,1.9-1.15.13-1.6-.78-2.04-1.54-1.83.21,1.59,1.27-.48,1.98-1.6-.14-2.53.61-4.14,1.76-1.14-.19,0-.8-.45-1.08l-.7,1.2c-.23.03-.23-.29-.23-.46-.69.56.22,1.26-.93,1.88-.03.37-.14.44-.54.43-.39-.02-.93-.15-1.57-.26-1.25-.23-3-.29-3.55.66-.8-.19-.28-.74-.77-1.13-.16.1-.31.2-.44.29-.03.03-.08.03-.09.08l-.02.15c-.01.1-.02.19-.03.28-.04.36-.08.66-.11.93-.06.53-.09.9-.11,1.26-.02.7,0,1.42.21,2.82-.46.42-.98.99-1.44,1.4.31-.15.63-.27.86-.16.24.09.43.33.6.6.36.53.61,1.33.83,2.07.57-.2,1.07-.37,1.33-.51l-.04,2.07c-.28.15-.62-.19-1.01-.68.05.16.11.32.16.44-.69.49-1.25-.11-1.75-.83.32-.14.65-.26.99-.38-.56-.73-1.2-1.45-1.94-1.63.09.17.12.45.09.73-.15-.19-.3-.34-.44-.33-.15.01.04.31.24.72l-1.49-.08.49.3-1.73,2.11c.71,2.23,2.15,4.45,1.73,7.38-.74-1.03-1.56-.72-2.71-1.17,1.5-.31.23-2.32,1-3.65-.4.7-.9.33-1.02.07l.21,2.95c-.93-.4-.91.29-1.54.81,2.06.17.59,2.34.81,3.58-.66-.16-1.22-.63-.62-1.84-1.91.9,1.59,2.58-.09,3.53.09-.31.25-.45-.04-.68.32.92-.74,2.53-1.15,1.92l.09-.31c-.94,1.98-2.13,6.26-.61,7.1-.22-.05-1.86-.92-2.14-1.15l2.11,2.74c.7.91,1.4,1.86,2.2,2.49-.68-.27-1.97-.31-3.15-.41-1.17-.13-2.21-.4-2.21-1.76-.42.64-.98,1.56-.93,3.1.39-.52,2.53-.96,2.48-.39-1.08.71-1.42,1.04-1.72,1.38-.33.38-.7.8-1.73,1.99.3-.42,1-.49,1.6-.38.6.12,1.1.37.91.84-.34-.05-2.64.83-2.77.47.54.77,1.15,1.35,1.81,1.73-.3-.38-2.27.85-3.28,1.94.32-.28.1.36-.19,1.18,0,.04-.08.13-.01.13l.14.04.29.09c.2.06.4.11.58.17.38.1.73.18,1,.18-.24-.24-.46-.47-.66-.7,1.47.54,3.15.14,4.59-.35,1.48-.48,2.73-1.04,3.85-.71-.52.35-2.83,2.25-1.3,2.92.72-.42,2.29-1.46,3.56-2.54.32-.27.63-.54.91-.8.28-.26.53-.51.84-.72.59-.43,1.18-.73,1.73-.83l.23.73,1.71-.35c-.68.72-1.91,1.81-3.19,2.84-.66.51-1.24,1.03-1.95,1.44-.77.4-1.58.71-2.28.9,1.06.8.1.82,2.06,1.24.08.18.06.31-.02.41-.07.1-.19.17-.48.19-.51.04-1.19-.03-1.52-.1,1.97.62,2.56.9,3.59,1.29.19-1.34,2.59-.75,2.74-1.87l-3.55.56c.19-1.34,2.77-3.25,4.81-2.5.41.65-.97,2.23-1.03,2.67.38-.38,2.2-.37,2.32,0l-1.06.48c1.05.78,2.33-1.26,3.43.33.46.2,1.03,2.04,1.31,1.28-.42-1.68.55-6.33,1.36-7.32.15.14,2.19,2.05,2.57,2.92.51,1.36-1.88,2.49-1.45,3.66.12-.35.67-.68.88-.78.43.43-.48,1.05.66,1.16.51-1.28,2.22.66.8-.99,1.17-.11,1.08.55,2.37.81-.19-.95,1.86-2.63,3.03-2.74-.15.32-.01.82.06,1.05,2.19.66,3.23,1.56,5.29,2.08.11.37,1.01,1,.45,1.47.35-.16.74-.54,1.38-.42.95,1.45-1.46-.17-.86,1.44.27-.75,1.91-.66,2.94-.91.01-1.26-2.04-.74-3.07-.49.4-1.64,2.4-2.97,4.75-3.19,1.82.01.48,1.24.84,1.08,3.15,1.08,3.45-2.19,5.84-.35.81,1.31-.46,2.09-.41,2.9-1.5.05-1.98-1.19-2.94-1.38l1.05.78c-.53.24-1.53.27-1.96-.16.33.58,1.68.96,3.23,1.38.78.21,1.6.43,2.38.69.78.26,1.47.55,2.14.95.55-.23,1.32-.43.97-.96l-.77-.03c-.28-.52.12-.72.42-.9.31-.17.53-.31.16-.61.14-.07.27-.14.4-.22.34-.37.63-.75.93-.99.09-.07.12-.11.26-.17.13-.06.27-.11.41-.15.29-.08.59-.11.93-.08l.57,1.13c-.12-.34-1.14-.48-1.47-.01.49-.68,2.67,1.07,2.98-.66l-1.24-.58c.92-.85,1.93-2.43,3.34-2.37-.88-1.03-.27.21-1.54-.95,1.22,1.52-3.39.74-1.66,2.22-.67-.68-1.13-.75-1.62-.79-.24-.02-.49-.02-.78-.09-.14-.03-.3-.08-.47-.16l-.13-.06-.05-.09c-.03-.06-.07-.14-.1-.22.08.4.28.73-.09.61,0,.12-.03.28-.05.38-.01,0-.02-.01-.03-.02l.02.04c-.01.07-.01.08,0,.01.11.16.22.35.29.56-.04.41-.24.68-.5.91-.36.14-.8.14-1.08.37-.26-.16-.2-.27-.05-.38.16-.11.25-.27.2-.5l-1.06.48c.13-.89-1.39-1.88.28-2.01l-1.38-.38c-.7-.69-1.78-1.16-2.56-.97-.61-.35-1.89.56-1.16.02h-2.31s.03-.22.03-.22c-2.13-.64-4.79.36-6.86-1.82-.78.04-1.59.13-2.75-.42l-.05-.81c-1,.04-2.61-1.44-3.2-.75-.51-2.28-4.41-1.55-5.96-2.31l-.3.97c-1.11-.33-2.26-.32-3.76-.27l-.13.89c-1.38.42-2.95-1.38-4.88-1.76.21-.3.67-.1.97.19-.9-1.26-2.19-1.2-3.47-1.06-.32.03-.64.06-.95.1-.31.02-.67.02-.75.05-.29.02-.56-.1-.6-.49-.38.24-.52.09-.52-.14.02,0,.05,0,.08-.03-.02-.01-.05-.02-.08-.03,0-.16.04-.33.06-.48-.09.2-.13.38-.11.47-.18-.02-.5,0-.98.13.24-.27.5-.54.77-.8-.03,0-.04,0-.07.01.16-.33-.63.31-1.18.93-.3.09-.63.2-1,.35.69-.63.39-.57.04-.53-.17.02-.35.03-.37-.04-.04-.02.1-.13.23-.24.15-.12.35-.26.62-.43-.96.35-.34-.96-2.17-.81.26-.07.41-.21.36,0,.36-.49.7-.91.32-1.31.45-.08.91-.14,1.35-.2-.49-.28-.95-.64-1.38-1.09.96-.55,1.41-.52,2.18.15-.56-.63-.48-1.3-.5-1.68,0-.42-.02-.8-.41-1.89l.72.33c.18-.63-.5-1.96.25-2.12,1.89-.9,2.51-6.78,5.09-9.84-2.44-.1,1.57-1.29-.08-2.03.59-.02,1.06-.4,1.31.33.14-1.98,1.79-2.39.82-4.15.59-.01.62.66.99.59-.06-.18-.24-.73.14-.8.37-.07.34.42.46.79.58-1.85-.94-2.63-2.38-3.32,1.05-.66,1.12-1.16.4-2.2.61-.14,1.32-.48,1.07.72.08-.15.25-.46.46-.83.05-.09.1-.18.15-.28l.11-.2c.08-.14.15-.28.21-.42.24-.55.27-1.05-.22-1.55.31.1.3-.5.24-.74.03-.05.05-.11.08-.15.06,0,.12-.02.17-.02.11-.01.2-.02.29-.03.17-.02.31-.04.46-.05.28-.04.53-.1.99-.26l-.36-.13c-.12-.76.12-.91.44-.89.17,0,.33.05.55.07.25,0,.52-.01.81-.13v.16c2.97.47,1.06-.79,4.03-.16l-.36-.9c-.21-2.07,2.65.65,4.03-.48l-.68-.41c.7-.88,3,2.2,3.91,2.25.23.13-.23.35-.46.54,2.51.68.01-1.29,1.62-1.95.46.59-.02,1.77,1.14,1.64.68.41,2.77-2.88,4.59-1.96-.45-.43-.9-.87-.22-1.42,1.15-.45,3.65,1.2,4.36-.65.18.1.27.23.3.35.81-.62,2.8-1.36,3.14-2.35,1.57,3.04,5.29-2.85,5.95.13l2.76-.79v.32c1.83-.21,2.3-1.07,2.76-1.92.46.11.22.46.22.62,2.75,0,2.98-.18,4.83-2.16l.45.92c.23-.35,1.26-.18,2.52-.14,1.18.06,3.04-.11,3.31-.77,0,.12-.02.32-.1.48.11-.13.23-.22.36-.28.17,0,.35.04.52.13.09.04.17.09.25.15.02.02.11.06.2.1l.26.13c.69.34,1.35.74,1.98,1.04,1.26.59,2.38.77,3.23-.72l2.1-.43c-2.39-.84.72-1.44-.15-2.26,1.01.02,2.25,1.64,1.02,1.55l-.14-.22c-.86,1.73,2.9,1.36,2.54,2.59,4.85,1.03,9.32,3.14,13.83,4.27l-.19-1.55,1.56.45c.34.43.3,1.24-.82.92.4.95,2.05-.24,2.15-.54,2.07,1.09-1.25,1.46-.58,1.65l.94.11-.17-.21c.88-.41,1.09-1.01,2.43-.63.79.48.23.98.56,1.11-.03.1.08.17.51.16l1.96.58-.53-1.31c1.01-.35,1.86.49,1.23-.99.44,1.14,2.26,1.75,4.05,2.17.9.19,1.78.39,2.49.54.35.08.67.16.89.24.14.06.23.13.27.22.98-.64,1.95-.4,2.84-.08-.04-.26.72-1.41,1.71-1.02-1.38,1.06-1.21,1.39-.96,1.65.25.26.74.48-.32,1.22.28-.22.53-.34.8-.4.13-.03.27-.04.41-.05.07,0,.14,0,.21,0,.05,0,.19-.02.15.03,0,.34-.15.93,1.51-.09-.33.41-.67.53-1.08.66-.4.13-.88.29-1.4.61.38.39-.26,1.28-.88,1.96-.68.8-1.09.84-1.83,2.76.29.2,1.02-.06,1.18.81l-2.34.8c-.13.66,1.56,1.42-.05,1.97.34-.02.85-.05.76.39-4.36,5.09-4.37,12.5-9.98,17.16.99-.53.8.04.55.67.33-.34.79.36,1.26.48l-2.33,1.97c1.01.99-1.1,2.73-.06,3.5l.14-.89c.9,1.66,3.69-.14,5.37.79-1.04-1.87,3.67-2.07,2.32-4.98.55-.26.4.62.91.57-.53-.82-.42-1.48.41-2.42l.13.21c1.21-3.14,2.54-4.11,4.63-7.29l-.98-.15c.46-.68.8-.71,1.17-.95-.91-1.45-1.04,2.02-2.11.59,2.19-.16,2.47-5.16,4.76-4.86.55-1.12-1.15-.15-.6-1.26l.68-.04-.55-.62c.47-.68,1.32-.73,1.78-.53-.14.15-.12.57-.17.78,1.09-.64,1.09-2.78,1.45-3.01l-.85.91c.12-.41.27-.82.44-1.24.09-.21.17-.41.26-.62.11-.24.22-.48.33-.73.62-1.31,1.29-2.62,1.94-3.94,1.3-2.61,2.6-5.31,2.88-7.16l-.8.56c.14-.75.33-1.26.58-1.71-1.06-.4-.79-.89-3.89-1.35l.25-.05c-1.26.16-2.42.13-3.37-.15.68-.11.47-.42.24-.74-.22-.32-.45-.65.46-.73-2.4-.1-2.93-.05-3.4.12-.44.18-.84.46-2.28.98-.08-.27-.17-.55-.27-.82-.51.23-.78.42-1.14.54-.3.13-.68.18-1.37.12,1.25-.36-.6-1.3.82-1.83-2.46-2.24-4.56.62-5.32-1.99-1.76,1.7,2.19,1.68,1.36,1.94.46.79-1.42,1.25-2.26.84-.89-.25-.94-2.91-3.22-3.4.22.06.27-.09.5-.02-.73-.71-1.82.3-2.67-.77-.87,1.07-1.34-.38-1.86,1.12l2.16.13c-1.27.13-2.8,1.68-4.54.35.22-.28.9-.55,1.35-.69-.46-.59-1.16.05-1.65-.56.53-1.5,2.61.25,4.15-.63-.46-.79-2.65.56-1.63-.96-1.41,1.91-2.17-.79-4.09.48l.32-.9c-.28.09-.88.41-1.32.28l1.09-1.01c-1.48.73-2.19-1.45-3.51-1.17,2.51.55.3,1.24,1.2,2.16-3.37.52-1.21-2.83-4.76-3.19.5-.02,1.62.96.79,1.22-.61-.34-1.4-.9-1.69-1.48-2.33-.34.13,1.03-.98,1.37-.52-1.31-1.23.2-2.32.33l.21-.94c-2.46-1.21-1.15,1.8-3.32.52l1.29-1.07-1.3.05.5-1.01c-1.51.48-1.88.18-3.11-.42.15.73-.57,1.67-1.73,1.43-.66-.74.65-.79-1.02-1.04.51-.5,1.08-1.15,1.59-.11.14-.29.5-.51.65-.79-.7-.84-2.1-.64-2.69-.77.22.09.48.2.59.37l-2.67.75c-.29-.44.07-.65.43-.86-.13,0-.25.02-.37.05-.1.04-.35.05-.53.08-.39.05-.81.09-1.35,0,.35-.72.36-1.55,2.17-1.51l-3.12-.03-.83.39c-.24-.29-2.12-.48-1.66-.88-.15,0-.3.02-.45.04l-.23.04-.13.03c-.17.05-.34.13-.52.22-.35.19-.7.46-1.07.73-.74.54-1.54,1.07-2.43.96-.05.17-.19.35-.52.54-1.6.18-3.2-.44-4.81,1.03l-1.36-1.13c-1.38.64,1.81,1.4-.48,2.47-1.61.82-.9-1.02-1.59-1.27-.69.88-1.85,2.63-3.68,1.87.46-.38.91-.27,1.38-.48Zm-17.75,4.66c.3-.28.85-1.04,1.23-.54-.15,1.17-.57.72-1.23.54Zm-22.68,16.03c-.21-.36.08-.69.59-1-.04.34-.21.69-.59,1Zm37.45,37.17s-.03.02-.05.04c-.68-.55-.44-.34.05-.04Zm1.5.8c.19-.09.21-.22.18-.37-.17.21-.53.14-.93-.03.05.27.22.49.75.4Zm51.65-46.34l-.25-.32c.77-.11.51.09.25.32Z"/>
      <path class="cls-4" d="m66.76,52.98c.19-.04.37,0,.54.04-.1-.19-.28-.26-.54-.04Z"/>
      <path class="cls-4" d="m118.32,32.71s.04,0,.06,0c.02-.06.02-.12.02-.18l-.07.18Z"/>
      <path class="cls-4" d="m79.11,96.25c-.3-.22-.44-.43-.52-.64-.07.22.03.46.52.64Z"/>
      <path class="cls-4" d="m111.93,92.59l-.97.49c.48-.17.71,0,1,.09-.08-.21-.35-.48-.03-.58Z"/>
      <path class="cls-4" d="m122.22,96.27c.12-.15.31-.09.43-.24l-.15-.43c-.63.18-.99.64-.29.67Z"/>
      <path class="cls-4" d="m113.62,95.49c.27.77.85.35,1.53.03-.04.01-.08.03-.13.03-.05-1.16-.73-.61-1.41-.06Z"/>
      <path class="cls-4" d="m115.31,95.45c.21-.09.43-.16.66-.18-.02-.46-.29-.03-.66.18Z"/>
      <path class="cls-4" d="m107.95,94.35c.09.24.29-1,.28-.66.07-.25.06-.3,0-.26-.03.02-.07.07-.11.14-.12.05-.25.11-.36.17-.48.27-.74.65.19.6Z"/>
      <polygon class="cls-4" points="114.82 97.95 114.33 97.03 114.12 97.92 114.82 97.95"/>
      <path class="cls-4" d="m109.1,98.56l1.1.02c-.05-.16.05-.29.22-.4-.69.13-1.35.08-1.32.38Z"/>
      <path class="cls-4" d="m110.42,98.18c.37-.07.72-.17.89-.38-.2.06-.62.19-.89.38Z"/>
      <polygon class="cls-4" points="113.33 98.61 112.94 98.49 112.11 98.61 113.33 98.61"/>
      <path class="cls-4" d="m97.05,95.64l-1.32-.03c-.21.3.08.59.58.57.36-.16.85-.17.74-.54Z"/>
      <path class="cls-4" d="m100.18,99.23c-.29-.29-.26-.51-.37-.88l-.33,1.2.7-.32Z"/>
      <path class="cls-4" d="m96.47,98.62c-.21.3-2.05.51-.45.83.21-.3,1.53-.27.45-.83Z"/>
      <polygon class="cls-4" points="77.99 92.46 78.31 92.53 78.75 90.54 77.99 92.46"/>
      <path class="cls-4" d="m56.64,92.23c2.12,1.03,1.61-.89,3.31.15.86-.28-1.36-.85-.48-1.06-1.75.09-2.29-.34-2.83.91Z"/>
      <path class="cls-4" d="m59.47,91.32c.28-.01.58-.04.91-.1-.47.02-.73.05-.91.1Z"/>
      <polygon class="cls-4" points="156.58 82.7 155.8 83.43 156.68 83.13 156.58 82.7"/>
      <path class="cls-4" d="m157.2,85.04l-1.28-.31.84,1.01c.04-.23.11-.67.45-.71Z"/>
      <path class="cls-4" d="m86.32,38.44v.32c.22.3.45.27.91.22l-.91-.54Z"/>
      <polygon class="cls-4" points="99.52 36.44 99.29 36.47 99.97 37.52 99.52 36.44"/>
      <path class="cls-4" d="m110.09,32.51c-.46.05-.92.43-1.38.48.92-.43,1.82.92,1.38-.48Z"/>
    </g>
    <g>
      <path class="cls-4" d="m321.17,149.36c-2.26-.61-1.63.4-2.01.47,3.85.72,1.97-.7,2.01-.47Z"/>
      <polygon class="cls-4" points="359.18 156.38 358.43 156.55 364.16 157.04 359.18 156.38"/>
      <path class="cls-4" d="m395.7,159.13c-.96-.01-2.22.32-3.69.85-.73.27-1.51.59-2.32.94-1.04.46-2.14.94-3.26,1.43-1.99-.39-4.08-.79-6.1-1.18-1.76-.36-3.46-.75-4.94-1.23l-.96-.56-3.09.45c2.2.47,4.6.93,7.03,1.39,1.21.23,2.43.46,3.64.69.69.14,1.37.27,2.04.41.82.17,1.62.34,2.42.5,1.1-.47,2.18-.92,3.22-1.36.76-.32,1.5-.62,2.2-.91,1.41-.57,2.7-1.05,3.82-1.41Z"/>
      <path class="cls-4" d="m414.71,154.84c-1.31-.07,3.69-1.99-4.23,1.51.43-.11.56-.12.81-.17.72-.3,1.72-.69,3.42-1.34Z"/>
      <path class="cls-4" d="m411.29,156.17c-3.51,1.45,2.48-.49,0,0h0Z"/>
      <path class="cls-4" d="m427.47,149.35l-4.46,2.32c1.09-.08,5.26-1.67,3.81-.84,4.67-2.16,3.57-2.07.65-1.49Z"/>
      <path class="cls-4" d="m431.49,146.62l-2.33,1.16c.47-.04,1.13-.25,2.33-1.16Z"/>
      <path class="cls-4" d="m424.21,150.23l4.94-2.46c-.76.06-1-.35-2.29,1.09.26-.56-.6.22-2.66,1.37Z"/>
      <path class="cls-4" d="m421.24,151.19c-2.72.76-6.16,1.92-1.68-.4-8.82,3.75-7.14,4.15,1.68.4Z"/>
      <path class="cls-4" d="m396.86,157.08l-3.64,1.01-2.84,1.65c1.42-.82,6.86-2.33,6.48-2.66Z"/>
      <path class="cls-4" d="m434.81,148.88c.15,0,.38-.1.63-.27.25-.17.53-.42.76-.57-.05-.34-.12-.62-.19-.84-.35.72-.72,1.61-1.2,1.68Z"/>
      <path class="cls-4" d="m436.2,148.04c.04.25.07.53.1.84l.03.48v.26c.01.12-.03.43-.05.63.08-.36.15-.69.21-.98.04-.19.06-.35.08-.5.04-.29.04-.49.02-.62-.05-.26-.2-.24-.4-.12Z"/>
      <polygon class="cls-4" points="431.72 144.81 423.69 149.21 428.52 146.68 430.93 145.41 431.54 145.1 431.83 144.94 432 144.83 432.71 144.4 431.72 144.81"/>
      <polygon class="cls-4" points="430.81 166.98 430.82 163.79 430.59 169.42 430.81 166.98"/>
      <path class="cls-4" d="m427.6,180.48c.01-2.37-1.75,2.8-1.48.36-.83,3.67-1.21,6.89-1.54,9.81.57-3.04,1.5-6.17,3.02-10.17Z"/>
      <path class="cls-4" d="m423.89,195.5c.28-1.52.48-3.12.69-4.86-.31,1.61-.57,3.21-.69,4.86Z"/>
      <path class="cls-4" d="m434.18,159.38c-.28.37-.9,1.07-1.79,4.02l1.31-1.91c.15-.64.31-1.37.48-2.11Z"/>
      <path class="cls-4" d="m433.75,161.42l-.04.07c-.55,2.28-.93,3.86-1.09,4.54.14-.58.48-1.97,1.13-4.61Z"/>
      <path class="cls-4" d="m434.3,158.85c-.04.2-.08.34-.12.53.13-.18.18-.3.12-.53Z"/>
      <path class="cls-4" d="m438.59,143.03c.17.41.23,1.46.42,1.98.19.48.51.49,1.4-2.22-.21-.48-.58.11-.92.44-.34.37-.65.45-.9-.21Z"/>
      <path class="cls-4" d="m435.93,156.45l1.4-5.68c-.24.07-.78,1.03-.69-.58l-.71,6.26Z"/>
      <polygon class="cls-4" points="435.57 159.3 435.93 156.45 435.39 158.55 435.57 159.3"/>
      <path class="cls-4" d="m427.32,186.1c-.3,2.53-.99,5.2-1.79,8.2,1.08-3.16,2.06-6.47,2.92-9.63-.15-.52-.23-2.03-1.13,1.43Z"/>
      <path class="cls-4" d="m430.64,174.16c-.03.17-.06.39-.09.55.15-.32.24-.58.09-.55Z"/>
      <path class="cls-4" d="m416.38,223.52c.11-.14.2-.27.31-.41-.03-.05-.07-.09-.1-.16l-.21.57Z"/>
      <path class="cls-4" d="m428.75,184.17c.79-2.39.97-3.89,1.07-5.34-.39,1.84-.84,3.77-1.37,5.84.06.23.13.29.29-.5Z"/>
      <path class="cls-4" d="m421.86,203.79c.56-1.19,1.11-2.57,1.69-4.02-.62,1.15-1.76,3.52-1.69,4.02Z"/>
      <path class="cls-4" d="m430.12,175.48c.02-.12.03-.24.05-.37-.38.75-.27.68-.05.37Z"/>
      <path class="cls-4" d="m430.12,175.48c-.19,1.28-.23,2.32-.3,3.35.3-1.5.56-2.89.73-4.12-.13.29-.3.57-.43.76Z"/>
      <path class="cls-4" d="m418.43,234.14c-.3-.35-.05-2.14.61-4.49.64-2.36,1.69-5.26,3.01-7.84,1.21-5.55-2.4-2.84-5.36,1.3.26.28.59.38-.89,5.98,1.11-1.74,5.13-11.79,4.25-6.94-2.12,7.38-2.31,5.85-3.97,9.21,1-1.32.51,1.09,0,3.71-.53,2.61-1.09,5.41-.11,4.89.63-2.17,1.28-4.33,1.87-6.5.26-.04-.24,2.38.59.69Z"/>
      <path class="cls-4" d="m420.22,212.72l.63-2.29c-.96,2.53-1.83,4.29-3.55,7.46-.87,3.86-.88,4.72-.71,5.06,1.29-3.67,2.56-7.34,3.77-11.04l-.13.81Z"/>
      <path class="cls-4" d="m423.95,200.25c.32,2.02-1.01,7.59.91,4.52,1.94-6.71.71-4.89,1.51-9-2.94,10.86.46-3.23-2.3,4.43.49-2.16,1-4.07,1.47-5.89-.64,1.92-1.32,3.75-1.99,5.47.05-.09.08-.16.12-.23v-.05s.02.01.02.01c.24-.43.35-.57.13-.06,0,.04-.04.17-.05.23.09.11.14.34.17.58-1.09,3.07-.36.43-.17-.58-.03-.05-.04-.14-.08-.17,0,0-.02.02-.02.04-.89,3.64-1.85,7.27-2.82,10.89.83-2.23,1.7-5.09,3.1-10.18Z"/>
      <path class="cls-4" d="m441.6,146.41c-.15.36-.21.36-.28.41-.02.64,0,.9.28-.41Z"/>
      <path class="cls-4" d="m440.2,150.72c.04-.82-.2-1.36.34-3.59.67-2.06.45-.15.77-.31.02-.71.09-1.9-.02-2.27-.11-.39-.4.05-1.02,2.14v.6c-.26.94-.59,1.91-.91,2.78-.19.54-.38,1.07-.55,1.57-.2.52-.39,1.02-.56,1.48-.71,1.82-1.27,2.99-1.24,2.59,1.03-1.14,1.82-2.16,3.18-4.98Z"/>
      <path class="cls-4" d="m432.72,176.07c-.61,3.08-1.27,6.15-1.93,9.22l1.93-4.45-.5.12c1.5-5.15.66-4.16.49-4.89Z"/>
      <polygon class="cls-4" points="415.62 224.39 415.17 222.93 414.6 228.45 415.62 224.39"/>
      <polygon class="cls-4" points="411.61 235.86 411.02 235.16 410.34 238.33 411.61 235.86"/>
      <path class="cls-4" d="m41.05,132.67l.44-2.77c-.25,1.3-.38,2.15-.44,2.77Z"/>
      <path class="cls-4" d="m36.58,152.41l.28.56c-.02-.96-.09-1.37-.28-.56Z"/>
      <path class="cls-4" d="m200.47,413.14c-3.96-.66-8.31-2.04-7.87-1.11l1.19.91c2.77-.03,4.88.02,6.68.2Z"/>
      <path class="cls-4" d="m39.52,316.47c.03.39.06.8.1,1.21.57.85,1.12,1.65,1.6,2.36-.51-1.07-1.09-2.29-1.69-3.57Z"/>
      <path class="cls-4" d="m35.29,314.69c-.3-1.8-.61-3.59-.84-5.39.05.61.13,1.36.26,2.25.15.89.34,1.93.58,3.14Z"/>
      <path class="cls-4" d="m126.2,105.37l3-1.51c-4.96,1.02-2.69,1.01-3,1.51Z"/>
      <path class="cls-4" d="m351.02,343.23c-2.53,2.33-4.41,4.3-6.1,5.98,1.6-1.31,3.07-2.5,4.17-3.51,1.1-1.01,1.84-1.83,1.93-2.47Z"/>
      <path class="cls-4" d="m48.22,142.47c.22-1.68.21-2.42,0-2.42-.24,1.73-.3,2.72,0,2.42Z"/>
      <path class="cls-4" d="m338.07,356.28c.48-.36.93-.75,1.42-1.13.83-.94,1.67-1.86,2.56-2.83.87-.99,1.81-2.01,2.88-3.11-1.18.98-2.39,2.07-3.56,3.25-1.19,1.16-2.33,2.43-3.29,3.82Z"/>
      <path class="cls-4" d="m263.53,280.6c.19-.21.4-.48.58-.67-.05-.13-.28.18-.58.67Z"/>
      <path class="cls-4" d="m316.14,177.93c-.25,1.12-.76,2.93-1.23,4.63.29-.81.68-2.2,1.23-4.63Z"/>
      <path class="cls-4" d="m391.73,280.38c1.12-2.31.1-.41,0,0h0Z"/>
      <path class="cls-4" d="m400.32,270.62c-.14.54-.21.97-.06,1.12-.1-.28-.07-.67.06-1.12Z"/>
      <path class="cls-4" d="m322.38,377.23c-.06.05-.11.08-.18.14.72-.34.59-.28.18-.14Z"/>
      <path class="cls-4" d="m393.82,277.11c-.51.82-1.1,1.77-1.71,2.82.29-.45.85-1.28,1.71-2.82Z"/>
      <path class="cls-4" d="m393.23,277.39c.42-.78.75-1.39,1.06-1.98.01-.35-.19-.14-1.06,1.98Z"/>
      <path class="cls-4" d="m390.14,283.58c.66-1.31,1.32-2.51,1.97-3.66-.28.42-.42.59-.39.45-.33.67-.8,1.63-1.59,3.2Z"/>
      <path class="cls-4" d="m120.25,260.97c-.01.17-.02.37-.03.55.64,2.52.45,1.41.03-.55Z"/>
      <path class="cls-4" d="m132.42,413.4c.12.02.19.02.3.04-.12-.04-.27-.09-.37-.13l.07.09Z"/>
      <path class="cls-4" d="m123.05,411.24c2.11.14,3.72.35,5.14.73.71.18,1.39.4,2.06.63.68.23,1.36.46,2.1.7-.8-1.08-1.59-2.13-2.34-3.26-2.28.41-4.62.84-6.96,1.19Z"/>
      <path class="cls-4" d="m69.24,99.99l-3.03-1.32-1.52-.66-.76-.33-.41-.17-.67-.25.64.13c.24.05.28.04.43.07.24.04.48.07.72.11.47.08.94.15,1.39.22.89.16,1.74.32,2.51.46,1.53.3,2.78.55,3.6.71,1.64.3,1.58.11-1.21-1.3-.42.58-2.16.43-4.56-.08-1.37-.2-8.02-2.18-13.29-3.7-.69-.2-1.37-.4-2.05-.6l-.51-.15-.25-.07-.07.26-.29,1.03c-.38,1.37-.76,2.72-1.12,4.03-.72,2.63-1.37,5.07-1.87,7.2-.06.27-.12.53-.18.78l-.08.37-.04.21c-.04.28-.09.55-.13.81-.07.51-.11.97-.11,1.37-.01.79.11,1.33.4,1.53l-1.69,4.06c.35-1.2.24-1.44.6-2.62-1.73,3.92-1.66,5.58-1.55,7.55.11,1.97.25,4.26-1.24,9.5-1.11,3.64-2.1,6.14-1.81,3.54l-1.27,8.41c-.6,2.39-.92,1.7-.33-.68-.89,4.22-1.72,8.45-2.53,12.68l-.06-.11c.04,1.89-.14,6.12-.24,8.17-1,3.15.02-1.67-.47-.91-.23,2.39-.47,4.77-.67,7.15-1.21,2.74-.84-3.22.2-8.06-1.95,3.03-2.08,4.53-2.21,7-.13,2.48-.31,5.91-2.23,12.93.23-2.25.49-4.5.76-6.75-2.27,4.06-2.56,9.38-4.57,16.87.36-.87,1.52-4.6,2.53-7.12,1.03-2.51,1.89-3.82,1.62.07-.52,2.14-1.06,4.99-1.07,9.22-.97-.09-1.28,4.01-1.82,9.12l-1.23-.5c-.25,5.58.44,5.21.7,8.52-.72,6.15-1.76,7.36-2.73,8.75-.9,9.92,2.06-6.73,1.48,5.02-1,8.21-.73,14.06-.02,23.94-.42,5.78-.79-1.01-1.16,1.06l1.07,5.12c-.01,1.25-.33.86-.49.65.52,4.31,1.27.33,1.85,7.09.76.88.36,4.37.19,8.69-.21,4.32-.15,9.51,1.14,13.59-.11,2.1-.9-.9-1.31-.21.64,2.84,1.09,4.87,1.45,6.46.41,1.58.7,2.72.98,3.8.29,1.08.58,2.09,1.03,3.39.45,1.3.95,2.91,1.8,5.15l.44,4.03.54,4.03c-.44-6.01,2.33,1.16,5.07,7.17-.14-2.13-.19-3.95-.33-5.14.58,1.64,1.12,3.29,1.73,4.91l1.87,4.85c.22,1.24-.58.42-1.58-1.06.31.65.61,1.26.88,1.72.76,3.67-.56,2.1-2.11-.23-.14-1.3-.26-2.6-.36-3.85-1.53-2.24-2.94-4.39-3.54-3.66.33.62.78,1.88,1.28,3.25-.41-.59-.7-.97-.74-.62-.03.38.57,1.37,1.4,2.93l-.64,2.75.73.38c1.21,4.5,2.5,9,4.1,13.42,2.61,4.36,5.46,8.19,8.72,12.52,3.25,4.34,7.01,9.13,11.92,15.17-3.14-2.48-1.87.35-2.98.93-.38-1.08-1.08-2.18-1.91-3.41-.82-1.24-1.83-2.55-2.94-3.95-1.05-1.44-2.2-2.97-3.33-4.6-1.06-1.67-2.15-3.41-3.07-5.26,1.95,3.84,1,3.3.27,2.44l2.07,3.08,2.19,3c1.42,2.01,3.04,3.89,4.56,5.82-1.03.31,1.2,3,3.26,6.31-.12-1.76,1.84.2,4.43,3.04,2.63,2.81,6.04,6.42,8.43,8.24-.1.37-.53.43-1.59-.24-.51-.35-1.17-.9-2.02-1.7-.83-.81-1.92-1.81-3.08-3.23.52.89,1.08,1.64,1.66,2.27.57.64,1.14,1.2,1.7,1.68,1.12.99,2.27,1.67,3.44,2.33,1.16.65,2.29,1.33,3.49,2.16,1.21.82,2.44,1.87,3.73,3.4-1.36-1.14-2.02-1.84-2.78-2.04.89.56,2.01,1.43,3.19,2.35,1.2.89,2.44,1.88,3.49,2.77,2.13,1.75,3.61,3.04,2.45,2.6l-1.47-1.01c4.68,3.65,12.4,8.43,19.48,11.58,3.55,1.55,6.85,2.87,9.45,3.59,1.29.39,2.39.67,3.23.83.86.13,1.45.14,1.73.01.04.24-2.17,1.43-2.96,1.46,7.27.73,14.49.93,21.49.73h0s.59,3.21.59,3.21h0v-3.46l-.56.26c-.59.27-.55.87-.38,1.57l.07.3h-.02s0-.01,0-.01l-.05-.29c.28,1.14.86,2.51-.7,3.05l-.99.35v-5.72h0s.94,5.36.94,5.36c-.82.25-2.24.25-4.62-.18,1.23.43,2.6.9,4.32,1.39l-1.34-7.61h0s-8.26,5.29-8.26,5.29l9.66,2.34c1.89.46,4.36.97,7.51,1.37-1.84-.6-4.19-3.09-1.63-2.65,6.64,3.03,4.66,1.83,13.05,4.72-1.38-.4-1.19-1.03-.11-1.45,1.08-.44,3.03-.6,5.24-.29-.74.24.04,2.29-1.63,2.3l5.71-.34c1.89-.11,3.78-.21,5.67-.41-2.81.11-.72,1.84,1.72,2.74-.56-.28,1.86-.02,4.79.33,2.93.29,6.4.56,7.9.56l-4.71-.85c3.15.29,5.52.34,7.5.15,1.97-.21,3.55-.56,5.11-.92,3.12-.67,6.19-1.56,12.4-1.55-.74.27-1.66.96-1.6,1.66.06.69,1.11,1.38,4.32,1.37.72-.32,1.87-.84,3.37-1.51,1.49-.62,3.31-1.45,5.36-2.3,4.11-1.63,9.1-3.51,14.38-4.72l2.15.32,4.04-1.02,4-1.18c-1.18.66-2.91,1.64-5,2.58-2.1.94-4.53,2.04-7.09,3.05-2.57.95-5.25,1.95-7.8,2.79-2.56.77-4.97,1.46-6.99,1.98,4.78.13,1.38.7,8.5.01,1.29.15.35.52-1.19.83-1.54.29-3.67.54-4.72.65,2.78-.16,5.57-.28,8.35-.59,2.78-.27,5.57-.5,8.33-.92-.47-.62,2.64-1.41,5.74-2.29,3.09-.93,6.17-1.84,5.74-2.32-5.78,1.68-11.64,3.2-17.58,4.38-.45-.65,2.04-1.8,6.01-3.25,1.99-.71,4.36-1.36,6.92-2.14,2.57-.75,5.36-1.37,8.19-2.04,3.01-.18-1.61,2.85-1.29,3.24.69-.41,3.36-1.28,5.99-2.04,2.61-.83,5.17-1.61,5.74-1.59l-4.62,2.06c6.5-1.31,9.78-4.61,17.57-6.14,1.28-.45,3.36-.71,5.1-1.1,1.74-.38,3.19-.76,3.25-1.22-4.73.32-7.18-3.79-4.99-5.96.22-.07,1.17-.35,2.5-.74,1.34-.39,3.08-.9,4.85-1.51,1.79-.58,3.65-1.18,5.24-1.69,1.58-.55,2.91-.98,3.68-1.16,2.23-.47,1.11.91-.13,2.33-1.23,1.42-2.58,2.87-.65,2.46-.02-.4,1.97-1.94,2.81-2.53,1.33-.51,1.21-.13,1.42.02.21.14.79.06,3.44-1.55.11-.86,2.88-2.34,4.44-3.25.78-.46,1.28-.73,1.03-.65-.26.06-1.23.58-3.49,1.46,1.27-.81,2.23-1.45,3.08-1.96.85-.51,1.58-.91,2.35-1.32.76-.41,1.57-.81,2.55-1.38.96-.58,2.1-1.31,3.57-2.3-1.19.25-.27-1.24,1.49-3.27.86-1.04,1.93-2.22,3.07-3.37.57-.58,1.16-1.14,1.75-1.69.57-.56,1.15-1.1,1.7-1.6-.07.49,1.26.03,1.91-.2,4.87-3.69,8.54-6.62,12.08-9.56,3.53-2.95,6.91-5.94,10.92-10.01,1.01-.48,5.04-4.28,3.87-2.14.94-1.39,1.7-2.75,3.99-5.43,2.71-2.17,1.44-.67.05,1.02-1.37,1.7-2.97,3.47-.64,2.05-.13-.43,1.18-2.33,2.9-4.63,1.75-2.28,3.74-5.09,5.18-7.16-.97.2-2.87,2.39-4.9,5.04-2.1,2.59-4.29,5.7-5.87,7.67-1.24-1.15,3.48-8.65,10.18-18.35,2.76-3.78,3.53-4.48,3.81-4.32.26.14-.04,1.07.36.35,2.74-3.46,4.44-6.13,5.67-8.27,1.25-2.13,1.93-3.83,2.63-5.39.69-1.57,1.36-3.04,2.37-4.86,1.02-1.82,2.46-3.95,4.61-6.91,3.96-4.38,1.96.89,3.3.2-.92,1.69-1.81,3.14-2.66,4.44-.87,1.28-1.72,2.4-2.52,3.45-1.6,2.11-3.13,3.88-4.58,6.05,1.33-1.68,2.71-3.33,3.99-5.04-.5,1.13-1.43,2.79-2.47,4.43-1.03,1.64-2.14,3.29-3.1,4.33,1.82-1.71,6.13-7.87,10.68-15.17,4.58-7.29,9.35-15.75,12.92-21.63.81-2.33,2.38-6.25,1.09-4.67l-1.84,3.93c-2.59,3.12,2.65-7.79-.21-3.11,2.14-5.42,4.07-11.65,7.89-18.84l1.74-.89c-.2,0-.91,1.15-1.64,2.57-.74,1.41-1.54,3.09-1.85,4.21.98-3.27,6.7-10.71,6.66-14.78l-3.04,4.91c1.75-5.58,3.34-12.65,6.28-19.21-2.33,2.6-.47,1.6-3.68,5.81,1.65-1.72-.09,2.53-1.74,6.46-1.68,3.91-3.23,7.52-.98,4.62-3.6,4.14-4.31,8.02-8.5,13.58.46-.01,1.76-1.84-1.06,3.48-.01.3-.16.94-.26,1.34-.09.16-.13.22-.21.35.07-.1.12-.18.19-.28-.06.26-.06.29.07-.1.79-1.21,1.49-2.16,1.9-2.48-.44,3.11-4.81,11.66-5.97,14.73-1.86,3.07.3-1.54-1-.02-.54,1.54-1.11,3.07-1.7,4.59-1.03,0-5.93,7.54-2.29-.05-1.23,2.2-2.5,4.37-3.8,6.53-2.67,3.59-6.06,8.64-7.81,11.99-2.06,2.89-4.19,8-3.01,5.06-2.03,3.38-4.19,6.68-6.37,9.97l-.25-.05c-1.78,2.31-3.46,4.74-5.27,7.14-.9,1.2-1.77,2.45-2.7,3.66-.94,1.2-1.88,2.42-2.84,3.64-3.89,4.83-8.21,9.62-13.49,13.73-.65.73-1.31,1.47-1.99,2.24-.7.76-1.46,1.52-2.27,2.34-.82.82-1.71,1.68-2.7,2.61-1.01.91-2.15,1.86-3.41,2.89l-1.46.26c-.88.9-2.1,1.87-3.42,2.9-1.33,1.02-2.72,2.14-4.11,3.1-2.76,1.97-5.18,3.78-5.83,4.7-1.41.35-3.31,1.43-5.59,2.79-2.29,1.33-4.84,3.11-7.58,4.79-1.36.85-2.71,1.78-4.1,2.6-1.39.83-2.76,1.65-4.07,2.43-2.64,1.55-5.16,2.8-7.12,3.73l.15,1.06c-1.37.62-2.72,1.26-4.07,1.92-1.35.67-2.71,1.35-4.15,1.99-1.42.67-2.88,1.36-4.41,2.09-1.55.68-3.18,1.39-4.9,2.14l.74.68c-.73.37-1.53.73-2.38,1.09-.86.33-1.79.63-2.76.94-1.95.59-4.06,1.27-6.34,1.75-4.53,1.1-9.57,2.05-14.58,3.16.31-.24,1.11-.44,2.05-.66.94-.22,2.04-.41,2.96-.53-6.18.51-12.42,1.95-18.62,3.34-3.11.57-6.19,1.25-9.22,1.6-1.51.16-3.01.29-4.47.36-1.46.08-2.9.08-4.31-.07-2.76.44-4.79.42-6.74.26.26,0,.49-.03.69-.07-.29,0-.71,0-1.14,0-1.23-.15-2.5-.33-3.86-.46,1.16.21,2.28.39,3.25.47-2.14,0-5.4.2-8.6.33l-1.34-1.01c-.26,0-.47,0-.74,0-3.11-.46-2.53.37-.88,1.15-1.61.1-3.1.25-4.26.44-1.24-.85-3.33-.88-5.55-.91-1.11-.02-2.25-.04-3.32-.18-1.07-.15-2.07-.46-2.89-.96-.56.14-1.84.15-3.48.1-1.64-.04-3.64-.15-5.63-.32-3.97-.29-7.92-.45-8.9.2-.07-.24-.99-.51.73-.22-3.51-.82-7.03-1.6-10.28-1.72l-1.26-1.48c-2.66.08-5.31-.03-7.99-.05-.32-.13-.6-.24-.81-.34l.71,3.84h8l-8.67-3.83c-3.86-1.71-5.04-2.47-.64-2.21-2.8-.39-4.8-.65-6.3-.97-1.51-.32-2.57-.58-3.59-.82-2.05-.46-3.82-.98-8.62-1.95l.72-.57c-1.6-.62-3.77-1.21-5.76-1.82-1.97-.66-3.73-1.38-4.54-2.1-.8-.55-1.92-1.27-3.28-2.11-1.37-.84-3.03-1.73-4.82-2.85-.9-.54-1.85-1.11-2.85-1.71-.98-.61-1.98-1.28-3.02-1.95-2.12-1.3-4.23-2.89-6.47-4.46-4.37-3.28-8.82-7.07-12.81-11.13-3.98-4.06-7.43-8.43-10.14-12.48.21,2.24-.94.24-2.37-2.24-.74-1.22-1.43-2.64-2.12-3.69-.68-1.05-1.32-1.77-1.81-1.69-.14-1.28-1.29-3.74.76-1.32-1.41-2.04-2.6-3.86-3.5-5.62-.46-.87-.9-1.7-1.32-2.49-.4-.8-.75-1.59-1.12-2.34-.72-1.51-1.44-2.91-2.17-4.33-.74-1.41-1.64-2.75-2.64-4.21.07-1.27,1.57,1.64,1.48.58-.42-.68-1.67-2.72-1.77-3.8-.09-1.05,1,1.16,1.82,2.51-3.96-9.28-5.67-9.81-7.47-9.98-.52-2.59-.91-4.52-1.5-6.2-.61-1.68-1.28-3.15-2.29-4.84.01-.95-.06-2.19.12-2.43.17-.23.55.54,1.5,3.6-.45-1.75-1.71-7.11-2.71-12.11-1.05-4.99-1.94-9.62-2.59-9.7.07-.59-.11-1.84-.34-3.06-.22-1.22-.46-2.42-.61-2.89-.97-8.08-.91-8.81-1.66-16.78l-.06,2.23c-.88-1.52-1.08-3.18-1.14-5.26-.02-2.09.08-4.59-.11-7.82l.16.18c.09-1.86.14-3.35.17-4.57.05-1.22.07-2.16.08-2.92,0-1.52-.07-2.32-.13-3.1-.05-.79-.1-1.57-.05-3.07.04-1.5.21-3.72.63-7.36l-.98.77c-1.03-.71-.61-3.96.03-8.08.68-4.12,1.61-9.09,1.57-13.36l-.79,3.02c-.37-4.72,3.9-12.69,4.71-17.25.29-.98.11,1.62.09,3.04,2.6-11.92-1.09-1.71-.28-10.75.9-1.57,1.42,2.36,2.36-3.67.48-1.46.55-5.91.91-11.01.35-5.1,1-10.84,2.42-14.81-.86,1.71-1.71,3.41-1.31-.81,1-6.42,5.39-16.75,5.11-22.81.32-.77.52-1.04.66-1.05.68-4.92,3.09-15.81,3.02-18.92,1.08-.9,2.03-3.23,2.89-6.22.44-1.49.85-3.14,1.25-4.85.25-1.03.28-1.28.39-1.85.1-.54.2-1.08.3-1.61.11-.57.22-1.14.32-1.69l.08-.43c.09-.02.23.03.34.05.24.05.48.1.71.14.94.2,1.87.42,2.65.67.41.13.7.24,1.08.39.47.18.88.37,1.2.55.64.36.95.73.83,1.09l14.72,4.25-.47.18c9.32,3.01,12.85,3.3,16.36,3.59,2.11.85.44.65.22.75,1.69.58,3.19,1.1,4.55,1.57,1.42.48,2.32.79,4.21,1.39.21.06.41.13.61.19l.3.09.15.05c.05,0,.1-.02.15-.03.4-.08.8-.15,1.18-.23.69-.14,1.35-.27,1.99-.4.97-.2,1.88-.41,2.76-.63,3.54-.87,6.75-1.95,12.47-3.89l1.42.72c1.32-.52,5.33-1.08,10.55-1.86,1.25-.19,2.57-.39,3.94-.59.71-.09,1.44-.18,2.18-.27,1.43-.19,2.88-.48,4.42-.83-.28.84-.51,1.64-.67,2.48-.12,0-.32-.02-.32-.39-.14.74-.44,1.68-.81,2.67-.18.49-.39.99-.6,1.48-.4.96-.79,1.93-1.19,2.9-1.69,4.07-3.48,8.14-5.03,11.97-3.13,7.65-5.38,14.31-4.54,17.64-.79,3.42-1.54,6.84-2.25,10.27,4.22-12.86.89,2.38,3.1-2.77-1.36,5.12-4.91,12.86-3.28,6.54l.46-.93c-.56-1.42-1.93,2.56-3.19,6.85-1.29,4.28-2.47,8.85-3.04,8.52-3.25,12.96-6.15,25.87-8.15,38.78-1.99,12.9-3.1,25.84-2.47,38.6l1.32-2.99.17,4.41.3,4.41c-.04,1.17-.24,1.98-.51,1.7-.27-.27-.62-1.64-.82-4.81-.14.85-.12,1.94,0,3.09.15,1.15.41,2.37.69,3.48.57,2.22,1.34,4,1.49,4.07.73,6.17.15,5.07-.62,2.86-.79-2.21-1.48-5.55-1.25-3.64.26,1.72.61,3.44.96,5.15l-.04-1.19c.65,2.04,1.2,3.1,1.76,4.6.55,1.5,1.13,3.42,2.18,7.12.56,2.37.55,3.04.46,3.34-.1.31-.3.25,0,1.18-.09.02.05.67.98,2.81,1.35,3.58,2.97,7.08,4.8,10.48-.38-1.56-.8-3.07-1.1-4.61,1.37,2.13,2.64,4.48,3.45,5.62.79,1.15.97,1.13.19-1.42.54,1.88,2.11,5.17,4.76,8.73,2.6,3.59,6.23,7.45,10.24,10.68,4.01,3.24,8.32,5.93,11.95,7.73.89.49,1.75.89,2.54,1.26.79.38,1.51.72,2.15,1.02,1.28.6,2.26.99,2.78,1.3,6.87,1.75,13.47,3.56,21.85,4.92-1.03-.26-1.79-.81-1.41-1.08.38-.25,1.9-.32,5.47.21-.73.58-.29,1.05.89,1.47,1.19.37,3.11.66,5.3.95,2.2.2,4.67.43,6.95.64,1.14.1,2.24.22,3.24.37.41.08,1.19.17,1.82.27.33.03.66.14.97.12.3-.05.59-.1.86-.15-.48.1-.79.14-.94.13-.16-.05-.16-.11-.03-.17.25-.2,1-.57,1.94-.99.73-.34,1.68-.75,2.74-1.2,1.05-.45,2.22-.89,3.3-1.48,2.18-1.12,4.28-2.17,5.27-2.89.96-.77.91-1-1.14-.45,5.47-2.74.79.73,5.19-1,6.12-4.13,12.76-8.69,19.26-14.17,6.5-5.46,12.77-11.86,18.19-19.03-.11-.43-2.39,1.57-.41-1.75,1.23-1.03,2.34-2.16,3.53-3.24,1.16-1.1,2.37-2.18,3.49-3.32.93-1.51.96-2.47,1.35-3.63.38-1.16,1.14-2.49,3.35-4.9-.74.61-1.83,1.51-.67-.54,10.11-14.24,17.62-30.49,24.25-46.95,6.62-16.51,12.26-33.36,18.67-49.82-2,4.39-1.14,1.32-.19-2.18-.8,2.23-.82-.29-1.41.03,1.76-4.59,3.46-9.2,5.11-13.84-.56-2.91,3.68-15.33,2.76-17.11l-.83,4.58c-.03-3.18-1.32-1.26-2.83,1.27-1.52,2.53-3.25,5.66-4.07,4.99-.02,3.53-1.74,7.78-3.59,12.53-1.84,4.76-3.82,10.01-4.27,15.75-1.1,2.26.02-2.2-.79-1.06-.06,2.95-.86,6.32-3.21,12.26l.03-.75c-2.69,8.54-4.99,14.52-7.59,20.65-2.58,6.15-5.48,12.45-9.82,21.46l1.48-.96c-1.91,3.86-2.51,4.58-3.62,6.29-.44,2.52.95-.16,2.24-2.96,1.31-2.79,2.66-5.62,2.45-3.25-2.06,2.22-5.18,9.14-8.62,15.64-1.66,3.28-3.47,6.41-5.01,8.91-1.58,2.48-3,4.25-3.95,4.8-3.38,5.63,1.99-1.05-1.49,4.53l-1.43,1.16-.24,1.82c-2.44,3.57-4.34,4.9-4.82,4.76.63-.83,1.55-2.52,2.14-3.47-3.59,4.28-8.87,12.88-10.32,14.17,1.39-1.55,2.82-3.08,4.13-4.72-5.11,7.31-11.63,14.79-18.8,21.35-.87.86-1.81,1.62-2.73,2.41-.92.79-1.83,1.57-2.75,2.35-1.86,1.51-3.77,2.91-5.61,4.37-1.92,1.33-3.8,2.64-5.65,3.92-1.9,1.2-3.76,2.36-5.55,3.49.46-.04.9-.13,1.35-.21-1.37.89-2.63,1.46-3.69,2.04-1.07.55-1.99,1.01-2.82,1.39-1.7.65-2.98,1.06-4.3,1.47-.27.08-.54.16-.82.24-.24.05-.43.16-.68.1-.12-.01-.25-.02-.38-.04-.15-.01-.31-.02-.47-.03-.44-.02-.9-.04-1.4-.06-2-.06-4.54-.14-8.16-.24l.53-.08c-2.91.26-6.8.15-10.71-.46,1.85-.04.17-.46-1.33-.99-1.5-.53-2.83-1.03-.47-.91-3.51-.34-5.67-.72-7.12-.9-1.46-.17-2.16-.31-2.75-.31-1.17-.08-1.81.27-6.53-.47-.61-.45-1.2-.94-1.78-1.44-1.59-.29-2.52-.31-3.84-.71-1.32-.4-3.11-.99-6.33-2.66,2.77,1.12,1.87.32,1.09-.45-.79-.77-1.44-1.5,1.61-.35-6.13-4.14-10.54-7.14-14.01-9.97-3.43-2.82-5.86-5.45-6.91-8.81-2.72-2.18-1.25.64.94,3.5,2.21,2.83,5.14,5.51,3.64,4.31.89,1.37-.39.67-2.26-.92-1.83-1.62-4.16-4.2-5.4-6.25-1.37-2.01-1.93-4.12-2.77-7-.2-.72-.43-1.49-.7-2.32-.24-.84-.5-1.75-.83-2.73-.35-.97-.65-2.06-1.07-3.23-.43-1.16-.83-2.46-1.33-3.85.39,1.12.56,1.14.95,2.26-.25-1.09-.6-2.13-.99-3.17-.36-1.05-.76-2.1-1.16-3.19-.76-2.19-1.47-4.55-1.61-7.34-.95-1.38-1.2-3.17-1.51-4.66-.25-1.51-.48-2.73-1.34-3.07.59,3.69,1.43,7.31,2.36,10.89-.89-3.02-2.07-5.91-2.97-9.43-.94-3.5-1.6-7.64-1.42-12.94.18.4.4,1.38.65,2.52.26,1.14.53,2.44.73,3.5.12-1.55-.09-3.01-.25-4.49-.14-1.48-.32-2.99-.11-4.58.39.22.64,1.17.84,2.58.1.71.18,1.53.24,2.43.08.9.18,1.88.27,2.9.38,4.09.98,8.91,2.23,12.08.03-.83-.2-1.99-.43-3.26-.22-1.27-.55-2.61-.77-3.77-.41-2.32-.6-3.83.44-2.24-.69-1.14-1.05-2.47-1.26-3.93-.24-1.46-.25-3.07-.27-4.77-.04-1.7.06-3.52-.03-5.41-.02-1.9-.21-3.89-.55-5.97l.93.57c-.11-1.3-.49-4.03-.32-6.44.33,1.48.65,2.94,1.04,4.4-.82-6.72,1.67-12.76,1.87-19.16-.39,3.33-.64,5.18-.84,6.17-.21.98-.39,1.1-.57.98-.35-.25-.71-1.48-1.32,1.33.12-8.36,1.17-10.68,2.21-13.2,1.11-2.52,2.25-5.24,3.73-14.43-.35,2.49-2.21,9.22-1.98,5.26.39-1.74.92-3.74,1.43-5.56.54-1.82,1.09-3.46,1.55-4.48,2.39-12.13-1.35,1.66-.82-3.62,2.03-3.88.86-6.05,1.79-11.45l.95.19c2.03-6.79,1.84-7.81,1.55-8.68-.27-.86-.59-1.56,1.52-7.62l-.18,5.56c.48-2.17.97-4.33,1.48-6.5l.67,1.62c1.24-7.17,2.1-9.28,4.56-15.94-1.15,1.36-1.41-1.43.57-7.41,1.93-3.88.07,2.56,2.86-5.92-.1,2.1-.1,4.43-2.18,7.82.17.48-.05,2.07.12,2.56,2.06-4.17,3.85-10.93,4.95-13.96-.45,1.16-1,2.54-1.38,3.21,1.01-4.21,2.05-8.41,3.15-12.61,1.05-1.78.76-.16.47,1.43.41-1.24.66-2.33.99-3.56.16-.61.34-1.26.56-1.99.06-.2.13-.4.19-.61.1-.29.2-.6.31-.91.22-.61.46-1.26.72-1.96.12.77.41,1.11.29,2.38-.03.31-.1.73-.17,1.14-.02.28-.06.6-.13.98-.14.76-.39,1.74-.78,3.05.66-2.13.92-3.3,2.34-7.31l3.4-9.74c.48-.75,1.82-3.46,3.02-5.81,1.19-2.34,2.22-4.32,1.9-3.12.26-.61.53-1.23.83-1.91-2.94.53-6.45,1.33-10.08,2.19-3.54.88-7.28,1.8-11.13,2.76-2.7.69-5.46,1.39-8.24,2.1-2.15.52-4.32.96-6.47,1.26-.43.24-1.34.58-3.21,1.07-4.22.77-8.23,1.3-12.41,2.02-1.04.18-2.1.37-3.17.58-.53.11-1.07.22-1.62.33l-.7.15-.22.06-.23.07c-.08,0-.15-.02-.23-.02l-.25-.03h-.06s-.13-.04-.19-.05l-.44-.1c-1.17-.27-2.37-.53-3.63-.76l-5.12-3c-7.71-1.98,6.96,3.94-5.88.64-9.11-2.27-3.01-2.15-6.05-3.48-2.34-.33-5.55-.73-9.17-1.5-1.81-.38-3.72-.86-5.67-1.46-.98-.3-1.96-.63-2.96-1-1.3-.5-2.63-1.01-3.96-1.52.56.14,1.11.28,1.64.41.45.12.9.24,1.33.35.63.17,1.23.35,1.83.53,1.19.36,2.36.74,3.65,1.07Zm-37.6,82.17c.1-1.92.07-5.8.88-7.09.72,2.33-.04,3.91-.88,7.09Zm10.83,148.67c-.79-1.23-1.49-3.34-1.93-5.83.64,1.69,1.34,3.61,1.93,5.83Zm336.23-25.52c-.03.08-.05.13-.07.2-2.51,3.36-1.61,2.18.07-.2Zm4.81-7.25c.33-.82.18-.84-.12-.58-.1.64-1.07,2.34-2.25,4.22.53-.4,1.25-1.28,2.38-3.63Zm-263.75-8.42l-.36-1.77c1.61,3.7,1,2.73.36,1.77Z"/>
      <path class="cls-4" d="m35.79,314.96c.01-.57.14-.77.29-.94-.36-.69-.54-.66-.29.94Z"/>
      <path class="cls-4" d="m125.65,105.65l.29-.05c.15-.09.22-.16.26-.23l-.55.28Z"/>
      <path class="cls-4" d="m294.66,399.62c-1.71.72-2.71,1.04-3.4,1.19.02.26.85.05,3.4-1.19Z"/>
      <path class="cls-4" d="m402.59,256.13c-.65,1.74-1.31,3.48-2,5.2,1.06-2.47,1.63-3.28,2.3-4.47-.26.02-.97.87-.3-.73Z"/>
      <path class="cls-4" d="m425.09,212.6c.14-.82.52-1.67.65-2.48l-.49.08c-1.04,3.35-1.44,5.8-.16,2.4Z"/>
      <path class="cls-4" d="m407.56,252.62c.9-.1,2.03-3.45,3.32-7.17-.08.22-.16.43-.25.65-.32-.75-.77-.11-1.29,1.21-.54,1.31-1.16,3.31-1.78,5.31Z"/>
      <path class="cls-4" d="m411.2,244.59c.41-1.14.84-2.3,1.31-3.39-.26-.59-.63,1.34-1.31,3.39Z"/>
      <path class="cls-4" d="m388.41,288.16c1.06-1.53-.37-1.51.42-2.28.03-1.15-1.14,1.71-1.79,3.71-.32,1.01-.54,1.78-.38,1.75.16-.03.69-.88,1.75-3.18Z"/>
      <polygon class="cls-4" points="411.25 250.69 409.78 251.62 409.69 253.97 411.25 250.69"/>
      <path class="cls-4" d="m397.79,278.8l3.01-5.55c-.19.01.06-.75.41-1.68-1.66,3.51-3.76,7.22-3.41,7.22Z"/>
      <path class="cls-4" d="m401.21,271.58c.87-1.82,1.68-3.57,1.99-4.67-.44,1-1.42,3.14-1.99,4.67Z"/>
      <path class="cls-4" d="m408.19,258.76l-.93,1.63c-.6,1.36-1.25,2.7-1.87,4.05.95-1.88,1.9-3.77,2.8-5.68Z"/>
      <path class="cls-4" d="m361.9,336.04c-1.35,1.85-2.68,3.72-4.09,5.52-.2.75,1.21-.52,2.69-2.62.84-1.44,2.32-3.52,1.4-2.9Z"/>
      <path class="cls-4" d="m376.41,320.81c-1.23,1.43-1.48,1.41-2.34,2.1l.9.88,1.44-2.98Z"/>
      <path class="cls-4" d="m364.75,337.33c-.15.75-5.5,8.53-.08,1.56.19-.76,4.23-6.42.08-1.56Z"/>
      <polygon class="cls-4" points="283.49 401.29 285.07 400.53 283.99 398.79 283.49 401.29"/>
      <path class="cls-4" d="m194.09,423.47c2.08.21,3.25.18,3.95.09.7-.09.92-.24,1.12-.39.4-.3.69-.58,4.45-.29,1.94-.49-6.15-.47-4.15-.9-1.25.13-2.36.22-3.27.27-.92.04-1.64.06-2.14.13-1,.13-1.09.39.05,1.09Z"/>
      <path class="cls-4" d="m199.46,421.97c.8-.08,1.65-.18,2.55-.32-1.45.13-2.13.23-2.55.32Z"/>
      <polygon class="cls-4" points="322.02 159.44 323.64 154.39 322.2 157.56 322.02 159.44"/>
      <path class="cls-4" d="m322.84,149.22l1.54-.93-.46-3.35c-.2,1.18-.6,3.46-1.08,4.28Z"/>
      <path class="cls-4" d="m27.04,196.41l.26.44c.44-.78.6-2.01.99-4.48-.43,1.34-.83,2.69-1.25,4.03Z"/>
      <polygon class="cls-4" points="41.41 125.9 41.08 127.09 42.78 125.14 41.41 125.9"/>
      <path class="cls-4" d="m87.47,102.83c-2.32-.75-5.14-1.32-7.48-2.07,5.15,1.33,7.69,3.66,7.48,2.07Z"/>
    </g>
  </g>
</svg>